<?xml version="1.0" encoding="UTF-8" standalone="no"?>
<!-- Created with Keyshape -->
<svg xmlns="http://www.w3.org/2000/svg" xmlns:xlink="http://www.w3.org/1999/xlink" width="1270px" height="655px" viewBox="0 0 1440 800">
    <title>hero</title>
    <desc>Created with Sketch.</desc>
    <defs>
        <rect id="path-1" width="1396" height="909"/>
        <path id="path-3" d="M247.272,32.3428C247.272,23.902,243.919,15.8068,237.949,9.83866C231.981,3.86983,223.884,0.517179,215.443,0.517179C168.056,0.517179,79.4665,0.517179,32.0789,0.517179C23.6372,0.517179,15.5417,3.86983,9.57217,9.83866C3.60336,15.8068,0.249602,23.902,0.249602,32.3428C0.249602,32.3428,0.249602,32.3428,0.249602,32.3428C0.249602,40.7836,3.60336,48.8788,9.57217,54.8469C15.5417,60.8158,23.6372,64.1684,32.0789,64.1684C79.4665,64.1684,168.056,64.1684,215.443,64.1684C223.884,64.1684,231.981,60.8158,237.949,54.8469C243.919,48.8788,247.272,40.7836,247.272,32.3428C247.272,32.3428,247.272,32.3428,247.272,32.3428Z"/>
        <path id="path-5" d="M338.824,32.1661C338.824,23.726,335.471,15.6308,329.502,9.66266C323.533,3.69383,315.437,0.340458,306.995,0.340458C242.403,0.340458,96.6004,0.340458,32.009,0.340458C23.5672,0.340458,15.471,3.69383,9.5022,9.66266C3.53266,15.6308,0.179627,23.726,0.179627,32.1661C0.179627,32.1668,0.179627,32.1668,0.179627,32.1668C0.179627,40.6076,3.53266,48.7021,9.5022,54.6709C15.471,60.639,23.5672,63.9924,32.009,63.9924C96.6004,63.9924,242.403,63.9924,306.995,63.9924C315.437,63.9924,323.533,60.639,329.502,54.6709C335.471,48.7021,338.824,40.6076,338.824,32.1668C338.824,32.1668,338.824,32.1668,338.824,32.1661Z"/>
        <path id="path-7" d="M2.92669,66.6757C2.92669,66.6757,56.1785,72.5039,94.517,89.5448C109.802,79.9326,114.392,80.3835,121.723,78.6884C151.931,71.7025,161.331,71.1846,173.686,65.2179C197.771,53.5882,203.285,49.277,203.285,49.277C203.285,49.277,205.817,38.6232,210.653,33.8814C215.488,29.1395,224.662,21.922,224.662,21.922L234.224,9.32004C234.224,9.32004,234.66,4.93087,234.938,2.13652C234.995,1.56236,235.295,1.03869,235.762,0.698949C236.23,0.359212,236.82,0.235147,237.384,0.35777C237.385,0.358491,237.385,0.358491,237.385,0.358491C239.135,0.7379,240.466,2.16104,240.73,3.93186C241.212,7.73316,241.144,11.9694,240.168,15.4173C240.168,15.4173,238.414,24.06,235.163,28.4189C238.136,27.5158,256.308,22.3505,256.308,22.3505C256.308,22.3505,249.726,36.8048,241.611,44.7428C233.495,52.6816,217.924,57.2532,214.56,59.0226C211.195,60.792,130.721,138.294,57.0738,122.447C-16.5733,106.601,2.92669,66.6757,2.92669,66.6757Z"/>
        <ellipse id="path-9" rx="25.2805" ry="25.2776" transform="translate(0,0) translate(25.2949,25.675)"/>
        <ellipse id="path-11" rx="25.2805" ry="25.2776" transform="translate(0,0) translate(25.8115,25.4983)"/>
        <ellipse id="path-13" rx="25.2805" ry="25.2776" transform="translate(0,0) translate(25.3974,25.675)"/>
        <ellipse id="path-15" rx="25.2805" ry="25.2776" transform="translate(0,0) translate(25.3974,25.675)"/>
        <path id="path-17" d="M207.769,72.9951C211.736,55.8719,201.07,38.7754,183.945,34.8082C144.981,25.7832,78.51,10.3869,39.5468,1.36183C22.4216,-2.60465,5.32316,8.06136,1.3555,25.1845C1.3555,25.1845,1.3555,25.1845,1.3555,25.1845C-2.61144,42.3084,8.05508,59.4049,25.181,63.3714C64.1434,72.3964,130.615,87.7927,169.578,96.8178C186.703,100.784,203.802,90.119,207.769,72.9958C207.769,72.9958,207.769,72.9951,207.769,72.9951Z"/>
        <path id="path-19" d="M165.043,70.1005C165.043,70.1005,136.421,82.318,130.704,86.749C123.38,76.4667,118.75,75.4555,116.051,73.2389C113.35,71.0223,64.9095,45.4576,58.9869,39.6388C53.0643,33.8208,47.9251,24.021,44.6817,21.4193C38.8975,16.7805,34.4061,14.243,30.9846,12.2716C29.3629,11.3368,24.5303,10.5427,22.6828,9.00483C17.9793,5.091,14.6364,1.61573,14.6364,1.61573C11.2328,-1.57245,6.13257,2.34065,9.0708,5.50576C9.07513,5.51008,9.07946,5.51513,9.08451,5.51946C9.09389,5.52956,12.5162,8.93198,14.6364,12.2716C15.673,13.9054,17.3517,17.31,17.6857,18.5845C19.4271,25.2314,20.7682,27.6514,20.7552,26.6856L0.541767,21.4193C0.541767,21.4193,10.2943,35.06,14.6364,37.2939C27.1879,43.7525,38.5794,41.5128,44.6817,43.782C50.7832,46.0513,91.4229,109.843,123.38,116.454C155.338,123.065,167.842,115.597,179.619,113.358C191.397,111.119,165.043,70.1005,165.043,70.1005Z"/>
        <path id="path-21" d="M204.919,23.4216C200.069,6.52713,182.44,-3.23796,165.544,1.61141C127.101,12.6446,61.5176,31.4664,23.0752,42.4996C6.17874,47.3489,-3.58749,64.9756,1.26244,81.8701C1.26244,81.8701,1.26244,81.8701,1.26244,81.8708C6.11237,98.7653,23.7418,108.53,40.6383,103.68C79.0806,92.6479,144.664,73.8253,183.106,62.7929C200.003,57.9435,209.769,40.3162,204.919,23.4216C204.919,23.4216,204.919,23.4216,204.919,23.4216Z"/>
        <path id="path-24" d="M2.41234,66.8344C2.41234,66.8344,55.6649,72.6626,94.0026,89.7035C109.288,80.0913,113.878,80.5429,121.209,78.8471C151.416,71.8612,160.817,71.3433,173.172,65.3773C197.256,53.7469,202.771,49.4357,202.771,49.4357C202.771,49.4357,205.303,38.7819,210.139,34.04C214.975,29.2981,224.148,22.0807,224.148,22.0807L233.709,9.47873C233.709,9.47873,234.146,5.08956,234.424,2.29593C234.481,1.72104,234.781,1.1981,235.248,0.858358C235.715,0.518622,236.305,0.394556,236.87,0.517179C236.87,0.517179,236.87,0.517179,236.871,0.517179C238.62,0.897309,239.953,2.32045,240.215,4.09127C240.697,7.89185,240.63,12.1281,239.654,15.576C239.654,15.576,237.9,24.2187,234.649,28.5776C237.622,27.6745,255.793,22.5092,255.793,22.5092C255.793,22.5092,249.213,36.9635,241.097,44.9022C232.981,52.841,217.411,57.4119,214.046,59.182C210.681,60.9514,130.206,138.452,56.5594,122.606C-17.0876,106.76,2.41234,66.8344,2.41234,66.8344Z"/>
        <path id="path-26" d="M193.178,15.5529C207.942,36.0006,165.26,72.2637,165.26,72.2637C165.26,72.2637,159.471,69.514,153.442,66.6512C174.253,108.269,178.684,135.126,183.473,158.099C188.813,171.809,183.473,171.417,183.473,171.417C183.473,171.417,174.98,161.847,141.164,162.913C109.722,163.845,77.8593,170.025,65.9101,180.322C60.7269,174.527,67.1192,166.781,67.1834,158.076C67.3948,129.413,63.1883,90.0396,49.5172,72.2637C43.2649,74.9116,24.3701,84.5793,24.3701,84.5793C24.3701,84.5793,-8.77792,52.2675,2.87475,32.3442C29.0267,8.58935,123.808,-15.7786,193.178,15.5529Z"/>
        <ellipse id="path-29" rx="25.2805" ry="25.2776" transform="translate(0,0) translate(25.7134,25.7544)"/>
        <ellipse id="path-31" rx="25.2805" ry="25.2776" transform="translate(0,0) translate(25.7927,25.9578)"/>
        <linearGradient id="Gradient-0" x1="0.926559" y1="0.402346" x2="0.298628" y2="0.28932">
            <stop offset="0" stop-color="#0054f2"/>
            <stop offset="1" stop-color="#0981f3"/>
        </linearGradient>
        <linearGradient id="Gradient-1" x1="0.533854" y1="0.819695" x2="0.786072" y2="0.216563">
            <stop offset="0" stop-color="#0054f2"/>
            <stop offset="1" stop-color="#0981f3"/>
        </linearGradient>
        <mask id="mask-4" fill="white">
            <use xlink:href="#path-3"/>
        </mask>
        <mask id="mask-8" fill="white">
            <use xlink:href="#path-7"/>
        </mask>
        <mask id="mask-6" fill="white">
            <use xlink:href="#path-5"/>
        </mask>
        <mask id="mask-10" fill="white">
            <use xlink:href="#path-9"/>
        </mask>
        <mask id="mask-12" fill="white">
            <use xlink:href="#path-11"/>
        </mask>
        <mask id="mask-14" fill="white">
            <use xlink:href="#path-13"/>
        </mask>
        <mask id="mask-16" fill="white">
            <use xlink:href="#path-15"/>
        </mask>
        <mask id="mask-2" fill="white">
            <use xlink:href="#path-1"/>
        </mask>
        <mask id="mask-18" fill="white">
            <use xlink:href="#path-17"/>
        </mask>
        <mask id="mask-20" fill="white">
            <use xlink:href="#path-19"/>
        </mask>
        <mask id="mask-22" fill="white">
            <use xlink:href="#path-21"/>
        </mask>
        <mask id="mask-25" fill="white">
            <use xlink:href="#path-24"/>
        </mask>
        <mask id="mask-27" fill="white">
            <use xlink:href="#path-26"/>
        </mask>
        <mask id="mask-30" fill="white">
            <use xlink:href="#path-29"/>
        </mask>
        <mask id="mask-32" fill="white">
            <use xlink:href="#path-31"/>
        </mask>
        <mask id="mask-2-2" fill="white">
            <use xlink:href="#path-1"/>
        </mask>
    </defs>
    <g id="Page-3" stroke="none" stroke-width="1" fill="none" fill-rule="evenodd" transform="translate(83.4668,99.5)">
        <g id="hero" transform="translate(-72,-154)">
            <rect id="Hero-Image" width="1212" height="909" transform="translate(0,0) translate(92,0)"/>
            <g id="Hero-Image1"/>
            <g id="people" mask="url(#mask-2)" transform="translate(-58.5241,8.79366) scale(1.1,1.1)" style="animation: people_t 2s linear both;">
                <g transform="translate(72,207)">
                    <g id="Group" stroke="none" stroke-width="1" fill="none" fill-rule="evenodd" transform="translate(581.777,173.264)">
                        <path id="Shape" d="M247.272,32.3428C247.272,23.902,243.919,15.8068,237.949,9.83866C231.981,3.86983,223.884,0.517179,215.443,0.517179C168.056,0.517179,79.4665,0.517179,32.0789,0.517179C23.6372,0.517179,15.5417,3.86983,9.57217,9.83866C3.60336,15.8068,0.249602,23.902,0.249602,32.3428C0.249602,32.3428,0.249602,32.3428,0.249602,32.3428C0.249602,40.7836,3.60336,48.8788,9.57217,54.8469C15.5417,60.8158,23.6372,64.1684,32.0789,64.1684C79.4665,64.1684,168.056,64.1684,215.443,64.1684C223.884,64.1684,231.981,60.8158,237.949,54.8469C243.919,48.8788,247.272,40.7836,247.272,32.3428C247.272,32.3428,247.272,32.3428,247.272,32.3428Z" fill="#FFD721"/>
                        <g id="Clipped">
                            <g id="Shape-2"/>
                            <path id="Shape-3" d="M113.824,-79.66C128.589,-59.2123,85.9072,-22.9492,85.9072,-22.9492C85.9072,-22.9492,80.1172,-25.6988,74.0886,-28.5617C94.8993,13.0557,99.3308,39.9129,104.12,62.8859C109.46,76.5959,104.12,76.2042,104.12,76.2042C104.12,76.2042,95.6265,66.6346,61.8104,67.6999C30.3685,68.6326,-1.49401,74.8121,-13.4432,85.1095C-18.6264,79.3145,-12.2341,71.5683,-12.1699,62.8636C-11.9585,34.2002,-16.165,-5.17323,-29.8361,-22.9492C-36.0884,-20.3013,-54.9832,-10.6335,-54.9832,-10.6335C-54.9832,-10.6335,-88.1312,-42.9453,-76.4785,-62.8686C-50.3266,-86.6235,44.4544,-110.992,113.824,-79.66Z" fill="#F7A001" mask="url(#mask-4)" transform="translate(33.6364,0)" style="animation: Shape-3_t 2s linear both;"/>
                        </g>
                        <ellipse id="Oval" fill="#EBF6FF" rx="25.2805" ry="25.2776" transform="translate(0,0) translate(34.0224,32.3428)"/>
                    </g>
                    <g id="Group-2" stroke="none" stroke-width="1" fill="none" fill-rule="evenodd" transform="translate(735.434,86.7065)">
                        <path id="Shape-4" d="M338.824,32.1661C338.824,23.726,335.471,15.6308,329.502,9.66266C323.533,3.69383,315.437,0.340458,306.995,0.340458C242.403,0.340458,96.6004,0.340458,32.009,0.340458C23.5672,0.340458,15.471,3.69383,9.5022,9.66266C3.53266,15.6308,0.179627,23.726,0.179627,32.1661C0.179627,32.1668,0.179627,32.1668,0.179627,32.1668C0.179627,40.6076,3.53266,48.7021,9.5022,54.6709C15.471,60.639,23.5672,63.9924,32.009,63.9924C96.6004,63.9924,242.403,63.9924,306.995,63.9924C315.437,63.9924,323.533,60.639,329.502,54.6709C335.471,48.7021,338.824,40.6076,338.824,32.1668C338.824,32.1668,338.824,32.1668,338.824,32.1661Z" fill="#00A777"/>
                        <g id="Clipped-2">
                            <g id="Shape-5"/>
                            <g id="Group-3" mask="url(#mask-6)">
                                <g transform="translate(-117.587,-60.59)">
                                    <path id="Shape-6" d="M2.92669,66.6757C2.92669,66.6757,56.1785,72.5039,94.517,89.5448C109.802,79.9326,114.392,80.3835,121.723,78.6884C151.931,71.7025,161.331,71.1846,173.686,65.2179C197.771,53.5882,203.285,49.277,203.285,49.277C203.285,49.277,205.817,38.6232,210.653,33.8814C215.488,29.1395,224.662,21.922,224.662,21.922L234.224,9.32004C234.224,9.32004,234.66,4.93087,234.938,2.13652C234.995,1.56236,235.295,1.03869,235.762,0.698949C236.23,0.359212,236.82,0.235147,237.384,0.35777C237.385,0.358491,237.385,0.358491,237.385,0.358491C239.135,0.7379,240.466,2.16104,240.73,3.93186C241.212,7.73316,241.144,11.9694,240.168,15.4173C240.168,15.4173,238.414,24.06,235.163,28.4189C238.136,27.5158,256.308,22.3505,256.308,22.3505C256.308,22.3505,249.726,36.8048,241.611,44.7428C233.495,52.6816,217.924,57.2532,214.56,59.0226C211.195,60.792,130.721,138.294,57.0738,122.447C-16.5733,106.601,2.92669,66.6757,2.92669,66.6757Z" fill="#009165"/>
                                    <g id="Clipped-3" stroke-width="1" fill="none">
                                        <g id="Shape-7"/>
                                        <path id="Shape-8" d="M90.3452,86.617C95.1381,88.4903,102.76,94.0018,104.053,96.9678" stroke="#FFFFFF" stroke-width="4" mask="url(#mask-8)"/>
                                    </g>
                                </g>
                            </g>
                        </g>
                        <ellipse id="Oval-2" fill="#EBF6FF" rx="25.2805" ry="25.2776" transform="translate(0,0) translate(33.9517,32.1668)"/>
                        <g id="Clipped-4" transform="translate(8.65672,6.49179)">
                            <g id="Oval-3"/>
                            <g id="Group-4" mask="url(#mask-10)">
                                <g id="Shape-9" transform="translate(8.65672,5.77048)">
                                    <path d="M9.62555,34.6402C8.83851,38.2438,7.83506,51.6696,8.77575,51.9711C9.78715,52.2949,22.8126,52.6643,22.3098,51.9711C21.2732,50.5422,20.8122,38.1255,22.3098,34.6402C22.8545,33.3714,19.7979,27.2403,17.5529,27.0181" fill="#FFC1B1"/>
                                    <path d="M9.37812,36.041C9.46108,35.487,9.54476,35.0116,9.62555,34.6402L17.5529,27.0181C19.7979,27.2403,22.8545,33.3714,22.3098,34.6402C21.4009,36.7558,21.2133,42.1598,21.4384,46.4011C19.9234,47.0936,18.3436,47.3309,16.7933,47.015C12.7196,46.184,9.95162,41.7566,9.37812,36.041Z" fill="#FF9898"/>
                                    <path d="M7.99376,31.2197C1.93838,33.2452,-4.08453,20.4196,3.71301,15.9756C6.11525,14.6065,10.6485,13.6414,12.6871,15.7765C13.8746,17.0193,14.1105,18.7519,13.9784,20.3409C13.845,21.9516,13.3617,23.532,12.7752,25.0496C11.9795,27.109,10.8599,29.001,8.87675,30.2863" fill="#0054F2"/>
                                    <path d="M20.5814,8.01663C26.2652,9.17578,29.4076,17.3352,27.5947,26.2275C25.7812,35.1198,19.6948,41.3981,14.0116,40.2397C8.32777,39.0813,5.18538,30.9211,6.99824,22.0288C8.81182,13.1365,14.8982,6.85821,20.5814,8.01663Z" fill="#FFC1B1"/>
                                    <path d="M21.6144,37.8161C22.7787,35.782,24.7128,33.9124,25.6686,31.9216C27.0551,29.0334,28.0095,25.8979,27.3877,22.6888C27.0277,20.8314,26.3056,18.9459,25.1377,17.4398C22.5147,14.059,16.6909,12.0257,18.1409,6.71828C18.3422,5.98326,18.6668,5.28287,19.0744,4.64163C19.6096,3.8013,20.3837,3.10163,21.2068,2.55055L21.5726,2.40629C28.7648,-2.68039,36.6756,11.8735,31.9173,21.011C31.1952,22.3988,32.4634,24.2021,33.3125,25.5401C34.2287,26.9827,35.7494,28.0395,36.8711,29.3162C39.238,32.0103,40.6974,35.6413,39.8505,39.2183C39.5922,40.3061,39.2027,41.3613,38.6263,42.3221C37.9164,43.5058,36.9188,44.5243,35.7357,45.2362C33.9243,46.3254,31.724,46.73,29.6442,46.8678C28.3024,46.9572,26.9715,46.8721,25.673,46.5122C24.6969,46.241,23.736,45.85,22.9194,45.2405C22.3228,44.7955,21.7897,44.2444,21.4196,43.5945C21.3965,43.5548,21.3749,43.5152,21.3532,43.4755C21.341,41.5013,21.4196,39.4924,21.6144,37.8161Z" fill="#0054F2"/>
                                    <path d="M20.2524,1.22262C25.3606,4.7354,19.0369,10.1546,15.256,11.8655C13.5103,12.6554,11.6729,13.5029,10.1882,14.7443C9.44881,15.3632,8.95682,16.1754,8.33642,16.8981C7.70448,17.636,6.73709,18.107,5.66005,17.4088C-1.60438,12.6972,12.2803,-4.25933,20.2524,1.22262Z" fill="#0054F2"/>
                                </g>
                            </g>
                        </g>
                    </g>
                    <path id="Shape-10" d="M499.249,292.34C499.249,274.763,484.999,260.514,467.42,260.514C416.998,260.514,319.319,260.514,268.898,260.514C251.319,260.514,237.069,274.763,237.069,292.34C237.069,292.34,237.069,292.34,237.069,292.34C237.069,309.917,251.319,324.166,268.898,324.166C319.319,324.166,416.998,324.166,467.42,324.166C484.999,324.166,499.249,309.917,499.249,292.34C499.249,292.34,499.249,292.34,499.249,292.34Z" stroke="none" fill-opacity="0.1" fill="#33A4FF" fill-rule="evenodd"/>
                    <g id="Group-6" stroke="none" stroke-width="1" fill="none" fill-rule="evenodd" transform="translate(979.987,0.149404)">
                        <path id="Shape-11" d="M289.459,31.9901C289.459,14.4132,275.209,0.164459,257.63,0.164459C202.081,0.164459,88.0721,0.164459,32.524,0.164459C14.9451,0.164459,0.694702,14.4132,0.694702,31.9901C0.694702,31.9901,0.694702,31.9901,0.694702,31.9901C0.694702,49.5669,14.9451,63.8157,32.524,63.8157C88.0721,63.8157,202.081,63.8157,257.63,63.8157C275.209,63.8157,289.459,49.5669,289.459,31.9901C289.459,31.9901,289.459,31.9901,289.459,31.9901Z" fill="#70BA02"/>
                        <ellipse id="Oval-4" fill="#EBF6FF" rx="25.2805" ry="25.2776" transform="translate(0,0) translate(34.4682,31.9901)"/>
                        <g id="Clipped-5" transform="translate(8.65672,6.49179)">
                            <g id="Oval-5"/>
                            <g id="Group-7" mask="url(#mask-12)">
                                <g id="Shape-12" transform="translate(12.2637,1.44262)">
                                    <path d="M4.85498,37.1943C4.0196,41.0209,2.95411,55.2747,3.95324,55.5942C5.02667,55.9383,18.8558,56.3307,18.322,55.5942C17.2218,54.078,16.732,40.8946,18.322,37.1943C18.9005,35.8476,15.655,29.3378,13.2715,29.102" fill="#FFC1B1"/>
                                    <path d="M4.59528,38.6817C4.68329,38.0931,4.77202,37.5889,4.85786,37.1943L13.2744,29.102C15.6578,29.3378,18.9034,35.8476,18.3248,37.1943C17.5912,38.9024,17.3005,42.6301,17.3077,46.298C17.3106,47.4535,5.20413,44.75,4.59528,38.6817Z" fill="#FF9898"/>
                                    <path d="M16.4838,8.92837C22.5183,10.1582,25.854,18.8219,23.9293,28.2623C22.0047,37.7036,15.5424,44.3692,9.50797,43.1394C3.47351,41.9088,0.137065,33.2459,2.06246,23.8047C3.98714,14.3642,10.4494,7.69782,16.4838,8.92837Z" fill="#FFC1B1"/>
                                    <path d="M23.8421,23.7131C25.9117,24.135,27.1511,26.6394,26.6086,29.3025C26.0654,31.9648,23.9445,33.7847,21.8748,33.3627C19.8051,32.9408,18.5658,30.4364,19.1083,27.7733C19.6515,25.1109,21.7724,23.2911,23.8421,23.7131Z" fill="#FFC1B1"/>
                                    <path d="M17.5371,2.97107C25.1846,-1.19737,33.7756,15.5132,24.1652,24.1769C23.7836,22.2048,22.5616,20.5321,21.3215,18.9329C18.5369,15.343,12.3539,13.1841,13.8933,7.54923C14.1061,6.76949,14.451,6.02582,14.8845,5.3449C15.453,4.45264,16.2739,3.70969,17.1475,3.12471L17.5371,2.97107Z" fill="#00A777"/>
                                    <path d="M16.1376,1.71527C21.561,5.44444,14.847,11.1976,10.8332,13.0146C8.97919,13.8535,7.02854,14.7529,5.45301,16.0708C4.66742,16.7279,4.49717,17.7175,3.83926,18.4857C-6.58921,9.24647,7.67346,-4.10569,16.1376,1.71527Z" fill="#00A777"/>
                                </g>
                            </g>
                        </g>
                    </g>
                    <g id="Group-8" stroke="none" stroke-width="1" fill="none" fill-rule="evenodd" transform="translate(228.295,86.7065)">
                        <path id="Shape-13" d="M161.866,32.1661C161.866,14.5899,147.615,0.340458,130.036,0.340458C101.697,0.340458,60.4528,0.340458,32.1128,0.340458C14.5339,0.340458,0.283508,14.5899,0.283508,32.1661C0.283508,32.1668,0.283508,32.1668,0.283508,32.1668C0.283508,49.7437,14.5339,63.9924,32.1128,63.9924C60.4528,63.9924,101.697,63.9924,130.036,63.9924C147.615,63.9924,161.866,49.7437,161.866,32.1668C161.866,32.1668,161.866,32.1668,161.866,32.1661Z" fill="#FFD721"/>
                        <ellipse id="Oval-6" fill="#FFFFFF" rx="25.2805" ry="25.2776" transform="translate(0,0) translate(34.0541,32.1668)"/>
                        <g id="Clipped-6" transform="translate(8.65672,6.49179)">
                            <g id="Group-5">
                                <g id="Oval-7"/>
                                <g id="Group-9" mask="url(#mask-14)">
                                    <g id="Shape-14" transform="translate(7.93533,5.04917)">
                                        <path d="M9.381,32.7503C8.64374,36.1239,7.70448,48.6934,8.5853,48.9755C9.53249,49.2784,21.7269,49.6247,21.2559,48.9755C20.2856,47.6374,19.8542,36.0128,21.2559,32.7503C21.7659,31.5623,18.9041,25.8222,16.8027,25.6137" fill="#FFC1B1"/>
                                        <path d="M9.14871,34.061C9.22662,33.5423,9.30526,33.0973,9.381,32.7503L16.8027,25.6137C18.9041,25.8222,21.7659,31.5623,21.2559,32.7503C20.4053,34.7303,20.2293,39.7896,20.44,43.7611C19.0217,44.4089,17.5428,44.631,16.0914,44.3353C12.2774,43.5577,9.68615,39.4124,9.14871,34.061Z" fill="#FF9898"/>
                                        <path d="M7.85309,29.5477C2.18438,31.444,-3.45475,19.4364,3.84503,15.2759C6.09433,13.9934,10.3383,13.0903,12.2471,15.0891C13.3588,16.2533,13.5795,17.8755,13.4562,19.3628C13.3314,20.8711,12.8783,22.3498,12.3293,23.7708C11.5841,25.6995,10.5367,27.4704,8.67981,28.6735" fill="#F96701"/>
                                        <path d="M19.6385,7.82477C24.9595,8.90962,27.9013,16.549,26.2039,24.8736C24.5065,33.199,18.8082,39.0769,13.4872,37.9921C8.16545,36.9072,5.22361,29.2679,6.92105,20.9432C8.61849,12.6179,14.3168,6.73992,19.6385,7.82477Z" fill="#FFC1B1"/>
                                        <path d="M20.6052,35.7229C21.6952,33.8186,23.5059,32.0687,24.4011,30.2041C25.6989,27.5006,26.5927,24.5649,26.0098,21.5607C25.673,19.8216,24.997,18.0565,23.9034,16.6471C21.4478,13.4813,15.9955,11.5777,17.3531,6.60864C17.5414,5.92123,17.8451,5.26484,18.2275,4.66471C18.7281,3.87776,19.4524,3.22281,20.2228,2.70707L20.5662,2.57147C27.2997,-2.1899,34.7055,11.4356,30.2509,19.9904C29.5743,21.2895,30.7617,22.9773,31.5574,24.2302C32.4151,25.5812,33.8384,26.5702,34.8888,27.7654C37.1042,30.2878,36.7081,33.7335,37.6777,37.0356C42.6228,53.8811,38.0117,47.5783,20.4227,48.3465C19.7229,48.3768,18.9149,37.4489,20.6052,35.7229Z" fill="#F96701"/>
                                        <path d="M19.3297,1.46354C24.1126,4.75271,18.1921,9.82568,14.6522,11.4277C13.0175,12.167,11.2977,12.9612,9.90762,14.1232C9.21508,14.7025,8.75483,15.4627,8.17411,16.1393C7.58185,16.8303,6.6765,17.271,5.66871,16.6175C-1.13259,12.206,11.8662,-3.66858,19.3297,1.46354Z" fill="#F96701"/>
                                    </g>
                                </g>
                            </g>
                        </g>
                    </g>
                    <path id="Shape-15" d="M245.716,34.5579C245.716,26.1171,242.362,18.0226,236.393,12.0538C230.423,6.08565,222.328,2.73228,213.886,2.73228C166.833,2.73228,79.2172,2.73228,32.1636,2.73228C23.7218,2.73228,15.6256,6.08565,9.65682,12.0538C3.68729,18.0226,0.334249,26.1171,0.334249,34.5579C0.334249,34.5579,0.334249,34.5579,0.334249,34.5579C0.334249,42.9987,3.68729,51.0939,9.65682,57.062C15.6256,63.0309,23.7218,66.3835,32.1636,66.3835C79.2172,66.3835,166.833,66.3835,213.886,66.3835C222.328,66.3835,230.423,63.0309,236.393,57.062C242.362,51.0939,245.716,42.9987,245.716,34.5579C245.716,34.5579,245.716,34.5579,245.716,34.5579Z" stroke="none" fill="#F96701" fill-rule="evenodd"/>
                    <g id="Group-5-2" stroke="none" stroke-width="1" fill="none" fill-rule="evenodd" transform="translate(10.2612,9.05032)">
                        <use id="Oval-8" fill="#FFFFFF" xlink:href="#path-15"/>
                        <g id="Group-10" mask="url(#mask-16)">
                            <g id="Shape-16" transform="translate(42.2283,5.04917) scale(-1,1)">
                                <path d="M9.381,32.7503C8.64374,36.1239,7.70448,48.6934,8.5853,48.9755C9.53249,49.2784,21.7269,49.6247,21.2559,48.9755C20.2856,47.6374,19.8542,36.0128,21.2559,32.7503C21.7659,31.5623,18.9041,25.8222,16.8027,25.6137" fill="#FFC1B1"/>
                                <path d="M9.14871,34.061C9.22662,33.5423,9.30526,33.0973,9.381,32.7503L16.8027,25.6137C18.9041,25.8222,21.7659,31.5623,21.2559,32.7503C20.4053,34.7303,20.2293,39.7896,20.44,43.7611C19.0217,44.4089,17.5428,44.631,16.0914,44.3353C12.2774,43.5577,9.68615,39.4124,9.14871,34.061Z" fill="#FF9898"/>
                                <path d="M7.85309,29.5477C2.18438,31.444,-3.45475,19.4364,3.84503,15.2759C6.09433,13.9934,10.3383,13.0903,12.2471,15.0891C13.3588,16.2533,13.5795,17.8755,13.4562,19.3628C13.3314,20.8711,12.8783,22.3498,12.3293,23.7708C11.5841,25.6995,10.5367,27.4704,8.67981,28.6735" fill="#1A84EE"/>
                                <path d="M19.6385,7.82477C24.9595,8.90962,27.9013,16.549,26.2039,24.8736C24.5065,33.199,18.8082,39.0769,13.4872,37.9921C8.16545,36.9072,5.22361,29.2679,6.92105,20.9432C8.61849,12.6179,14.3168,6.73992,19.6385,7.82477Z" fill="#FFC1B1"/>
                                <path d="M20.6052,35.7229C21.6952,33.8186,23.5059,32.0687,24.4011,30.2041C25.6989,27.5006,26.5927,24.5649,26.0098,21.5607C25.673,19.8216,24.997,18.0565,23.9034,16.6471C21.4478,13.4813,15.9955,11.5777,17.3531,6.60864C17.5414,5.92123,17.8451,5.26484,18.2275,4.66471C18.7281,3.87776,19.4524,3.22281,20.2228,2.70707L20.5662,2.57147C27.2997,-2.1899,34.7055,11.4356,30.2509,19.9904C29.5743,21.2895,30.7617,22.9773,31.5574,24.2302C32.4151,25.5812,33.8384,26.5702,34.8888,27.7654C37.1042,30.2878,36.7081,33.7335,37.6777,37.0356C42.6228,53.8811,38.0117,47.5783,20.4227,48.3465C19.7229,48.3768,18.9149,37.4489,20.6052,35.7229Z" fill="#1A84EE"/>
                                <path d="M19.3297,1.46354C24.1126,4.75271,18.1921,9.82568,14.6522,11.4277C13.0175,12.167,11.2977,12.9612,9.90762,14.1232C9.21508,14.7025,8.75483,15.4627,8.17411,16.1393C7.58185,16.8303,6.6765,17.271,5.66871,16.6175C-1.13259,12.206,11.8662,-3.66858,19.3297,1.46354Z" fill="#1A84EE"/>
                            </g>
                        </g>
                    </g>
                </g>
                <g transform="translate(976.936,325.873) translate(-90.5,-17)">
                    <path id="Rectangle-7" fill="#ffffff" opacity="0" d="M5,0L6,0C8.761,0,11,2.23858,11,5L11,5C11,7.76142,8.761,10,6,10L5,10C2.23858,10,0,7.76142,0,5L0,5C0,2.23858,2.23858,0,5,0Z" transform="translate(0,0) translate(0,24)" style="animation: Rectangle-7_o 2s linear both, Rectangle-7_d 2s linear both;"/>
                    <path id="Rectangle-2" fill="#ffffff" opacity="0" d="M7,0L8,0C11.866,0,15,3.13401,15,7L15,7C15,10.866,11.866,14,8,14L7,14C3.13401,14,0,10.866,0,7L0,7C0,3.13401,3.13401,0,7,0Z" style="animation: Rectangle-2_o 2s linear both, Rectangle-2_d 2s linear both;"/>
                </g>
                <g transform="translate(1219.12,238.816) translate(-90.5,-17)">
                    <path id="Rectangle-5" fill="#ffffff" opacity="0" d="M5,0L6,0C8.761,0,11,2.23858,11,5L11,5C11,7.76142,8.761,10,6,10L5,10C2.23858,10,0,7.76142,0,5L0,5C0,2.23858,2.23858,0,5,0Z" transform="translate(0,0) translate(0,24)" style="animation: Rectangle-5_o 2s linear both, Rectangle-5_d 2s linear both;"/>
                    <path id="Rectangle-6" fill="#ffffff" opacity="0" d="M7,0L8,0C11.866,0,15,3.13401,15,7L15,7C15,10.866,11.866,14,8,14L7,14C3.13401,14,0,10.866,0,7L0,7C0,3.13401,3.13401,0,7,0Z" style="animation: Rectangle-6_o 2s linear both, Rectangle-6_d 2s linear both;"/>
                </g>
                <g transform="translate(242.19,241.879) translate(-90.5,-17)">
                    <path id="Rectangle-8" fill="#ffffff" opacity="0" d="M5,0L6,0C8.761,0,11,2.23858,11,5L11,5C11,7.76142,8.761,10,6,10L5,10C2.23858,10,0,7.76142,0,5L0,5C0,2.23858,2.23858,0,5,0Z" transform="translate(0,0) translate(0,24)" style="animation: Rectangle-8_o 2s linear both, Rectangle-8_d 2s linear both;"/>
                    <path id="Rectangle-9" fill="#ffffff" opacity="0" d="M7,0L8,0C11.866,0,15,3.13401,15,7L15,7C15,10.866,11.866,14,8,14L7,14C3.13401,14,0,10.866,0,7L0,7C0,3.13401,3.13401,0,7,0Z" style="animation: Rectangle-9_o 2s linear both, Rectangle-9_d 2s linear both;"/>
                </g>
                <g transform="translate(984.525,326.98) scale(1.05,1.05) translate(-90.5,-17)">
                    <path id="Rectangle-3" fill="#ffffff" opacity="0" d="M5,0L6,0C8.761,0,11,2.23858,11,5L11,5C11,7.76142,8.761,10,6,10L5,10C2.23858,10,0,7.76142,0,5L0,5C0,2.23858,2.23858,0,5,0Z" transform="translate(-498.987,0) translate(0,24)" style="animation: Rectangle-3_o 2s linear both, Rectangle-3_d 2s linear both;"/>
                    <path id="Rectangle-4" fill="#ffffff" opacity="0" d="M7,0L8,0C11.866,0,15,3.13401,15,7L15,7C15,10.866,11.866,14,8,14L7,14C3.13401,14,0,10.866,0,7L0,7C0,3.13401,3.13401,0,7,0Z" transform="translate(-498.987,0)" style="animation: Rectangle-4_o 2s linear both, Rectangle-4_d 2s linear both;"/>
                </g>
            </g>
            <g id="man" mask="url(#mask-2-2)" transform="translate(674.479,447.76) scale(1.1,1.1) translate(-684.056,-481.463)" style="animation: man_t 2s linear both;">
                <g transform="translate(340,154)">
                    <path id="Shape-17" d="M196.573,605.052L196.959,604.229L199.801,601.97C205.069,600.33,210.353,598.798,215.641,597.297L216.249,597.126C221.847,595.677,227.456,594.3,233.07,592.975L234.559,592.626C248.657,591.023,263.062,589.953,277.455,589.439C282.644,589.255,287.845,589.31,293.04,589.346C298.702,589.393,304.365,589.473,310.028,589.579L310.32,589.585C318.737,589.913,327.153,590.268,335.571,590.93L336.068,590.97C338.181,591.215,340.294,591.463,342.407,591.711L342.488,591.721C345.315,592.211,348.14,592.706,350.966,593.202L352.789,593.523C356.773,594.351,360.756,595.184,364.74,596.018L364.99,596.07C370.709,597.408,376.428,598.746,382.148,600.081C384.496,600.628,386.844,601.175,389.192,601.721L391.047,602.152L402.435,604.966C408.268,604.666,414.105,604.507,419.949,604.632C421.223,604.737,422.501,604.771,423.77,604.949C427.882,605.526,433.245,606.684,437.227,607.707C452.767,611.696,454.8,612.507,470.913,617.374L471.22,617.472L474.187,619.686L475.091,621.343C475.091,621.343,475.423,623.129,475.423,623.129C475.071,624.999,475.032,625.002,474.187,626.552C474.187,626.552,471.213,628.767,471.213,628.767L470.913,628.864C454.8,633.731,452.767,634.541,437.227,638.531C435.105,639.076,432.592,639.658,430.092,640.165L429.633,640.516C429.472,640.561,429.312,640.606,429.151,640.65C418.794,643.434,408.378,645.849,397.962,647.991L397.551,648.075C388.538,649.766,379.504,651.238,370.457,652.539L369.919,652.615C365.884,653.109,361.846,653.563,357.807,653.989L356.945,654.078C353.59,654.339,350.235,654.571,346.878,654.787L345.992,654.843C341.4,654.923,336.812,654.872,332.232,654.745L331.768,654.731C325.481,654.415,319.196,654.024,312.913,653.575L312.73,653.561C306.323,652.985,299.918,652.343,293.517,651.642L293.164,651.603C288.04,650.953,282.918,650.262,277.799,649.537L277.325,649.47C275.024,649.038,272.724,648.599,270.424,648.153C257.778,645.698,245.377,642.295,232.871,638.876L232.417,638.751C221.161,635.082,209.913,631.234,198.696,627.13L198.689,627.128C197.624,626.452,196.465,626.005,195.496,625.102C193.7,623.428,192.181,620.775,191.596,617.882C191.259,616.212,191.378,613.571,191.378,613.571C191.758,612.234,191.952,610.769,192.518,609.562C193.794,606.843,194.872,606.152,196.573,605.052Z" stroke="none" fill-opacity="0.1" fill="#025FF2" fill-rule="evenodd"/>
                    <path id="Shape-18" d="M687.293,85.1395C687.293,67.5626,673.043,53.3139,655.464,53.3139C615.469,53.3139,547.238,53.3139,507.243,53.3139C489.664,53.3139,475.414,67.5626,475.414,85.1395C475.414,85.1395,475.414,85.1395,475.414,85.1395C475.414,102.716,489.664,116.965,507.243,116.965C547.238,116.965,615.469,116.965,655.464,116.965C673.043,116.965,687.293,102.716,687.293,85.1395C687.293,85.1395,687.293,85.1395,687.293,85.1395Z" stroke-opacity="0.5" stroke="#33A4FF" stroke-width="4" fill="none" stroke-dasharray="16,16,0,0"/>
                    <path id="Shape-19" d="M212.699,85.1395C212.699,67.5626,198.448,53.3139,180.869,53.3139C140.875,53.3139,72.643,53.3139,32.6482,53.3139C15.0693,53.3139,0.818895,67.5626,0.818895,85.1395C0.818895,85.1395,0.818895,85.1395,0.818895,85.1395C0.818895,102.716,15.0693,116.965,32.6482,116.965C72.643,116.965,140.875,116.965,180.869,116.965C198.448,116.965,212.699,102.716,212.699,85.1395C212.699,85.1395,212.699,85.1395,212.699,85.1395Z" stroke-opacity="0.5" stroke="#F43C39" stroke-width="4" fill="none" stroke-dasharray="16,16,0,0"/>
                    <path id="Shape-20" d="M333.818,626.699C331.892,627.907,330.61,629.87,329.689,632.259C328.98,634.085,328.617,636.027,328.617,637.986C328.614,637.986,328.614,637.986,328.614,637.986C328.614,640.15,329.727,642.161,331.561,643.309C333.77,644.695,336.378,645.341,339.622,645.36C345.118,645.391,347.659,644.398,350.817,642.332C351.321,642.003,351.94,641.905,352.521,642.06C353.893,642.422,356.379,643.085,357.063,643.266C357.182,643.298,357.304,643.32,357.427,643.331C366.342,644.098,375.672,643.398,380.426,639.645C380.91,639.244,381.189,638.649,381.189,638.022C381.203,637.841,381.203,637.647,381.203,637.452C381.203,636.492,380.558,635.651,379.631,635.401C374.509,634.024,358.562,629.735,357.319,629.401C357.267,629.387,357.216,629.372,357.166,629.354C356.22,629.021,346.638,625.655,344.196,624.797C343.827,624.667,343.43,624.642,343.047,624.724C340.935,625.176,333.818,626.699,333.818,626.699" stroke="none" fill="#313647" fill-rule="evenodd"/>
                    <path id="Shape-21" d="M255.901,605.406L255.685,604.931C260.756,601.037,266.159,598.498,274.583,596.861C274.94,596.792,275.307,596.798,275.661,596.878C275.947,596.942,276.323,597.028,276.725,597.138C277.448,597.302,278.066,597.766,278.425,598.415C278.783,599.065,278.845,599.836,278.598,600.535C276.504,606.599,273.625,610.473,270.338,613.22C269.853,613.622,269.423,614.087,269.062,614.604C269.062,614.604,264.038,621.935,263.917,622.105C260.435,627.041,256.294,627.089,253.089,626.829C249.791,626.561,247.929,625.188,246.111,623.14C245.035,621.947,244.441,620.397,244.441,618.792C244.441,618.576,244.441,618.36,244.447,618.148C244.447,616.357,244.737,614.577,245.306,612.879C246.072,610.557,247.126,608.613,248.693,607.339C248.932,607.151,249.208,607.018,249.504,606.947C250.959,606.586,255.901,605.406,255.901,605.406Z" stroke="none" fill="#313647" fill-rule="evenodd"/>
                    <path id="Shape-22" d="M345.716,618.851C346.377,616.313,344.856,613.721,342.319,613.059C342.319,613.059,342.319,613.059,342.319,613.059C339.781,612.399,337.187,613.92,336.527,616.457C335.632,619.89,334.415,624.561,333.521,627.993C332.86,630.53,334.381,633.123,336.919,633.784C336.919,633.784,336.919,633.784,336.919,633.784C339.456,634.445,342.05,632.924,342.71,630.387C343.605,626.954,344.822,622.283,345.716,618.851Z" stroke="none" fill="#FFC1B1" fill-rule="evenodd"/>
                    <path id="Shape-23" d="M261.487,599.924C262.231,597.41,260.797,594.768,258.282,594.023C258.282,594.023,258.282,594.023,258.282,594.023C255.768,593.278,253.126,594.713,252.381,597.227C251.373,600.628,250.002,605.256,248.995,608.657C248.25,611.171,249.685,613.812,252.199,614.558C252.199,614.558,252.199,614.558,252.199,614.558C254.713,615.302,257.355,613.868,258.1,611.354C259.107,607.953,260.479,603.325,261.487,599.924Z" stroke="none" fill="#FF9898" fill-rule="evenodd"/>
                    <path id="Shape-24" d="M223.611,104.505C227.578,87.382,216.912,70.2856,199.786,66.3184C160.823,57.2933,94.3519,41.897,55.3887,32.872C38.2635,28.9055,21.1651,39.5715,17.1974,56.6946C17.1974,56.6946,17.1974,56.6946,17.1974,56.6946C13.2305,73.8185,23.897,90.915,41.0229,94.8815C79.9853,103.907,146.457,119.303,185.42,128.328C202.545,132.294,219.644,121.629,223.611,104.506C223.611,104.506,223.611,104.505,223.611,104.505Z" stroke="none" fill="#F43C39" fill-rule="evenodd"/>
                    <g id="Clipped-7" stroke="none" stroke-width="1" fill="none" fill-rule="evenodd" transform="translate(15.8419,31.5101)">
                        <g id="Shape-25"/>
                        <path id="Shape-26" d="M89.5653,59.6451C96.0225,63.3981,103.581,62.9624,110.113,66.2732C114.36,68.4263,118.186,71.8251,121.064,75.5976C122.886,77.9865,124.269,80.677,126.205,82.9852C128.984,86.2996,134.1,88.3806,133.348,93.4204C133.213,94.3228,132.752,95.8108,131.988,96.4081C126.791,100.471,119.534,98.9269,113.661,97.2506C101.498,93.7803,88.4926,86.2491,81.8738,75.0328C81.1286,73.7705,80.6121,72.3784,80.2615,70.9588C79.8979,69.4845,79.9477,69.2428,79.6556,67.1078C79.5632,66.4362,79.499,65.7611,79.4363,65.0852C79.2451,63.0417,78.7769,58.3655,81.3725,57.3614C83.5367,56.524,86.3703,58.3734,88.1738,59.3847" fill="#D60C0C" mask="url(#mask-18)"/>
                    </g>
                    <path id="Shape-27" d="M247.974,152.102C247.974,152.102,219.352,164.32,213.635,168.751C206.311,158.469,201.682,157.457,198.982,155.241C196.282,153.024,147.841,127.459,141.918,121.641C135.996,115.823,130.857,106.023,127.613,103.421C121.829,98.7823,117.338,96.2448,113.916,94.2734C112.294,93.3386,107.462,92.5444,105.614,91.0066C100.911,87.0928,97.5679,83.6175,97.5679,83.6175C94.1643,80.4293,89.0641,84.3424,92.0023,87.5075C92.0066,87.5119,92.011,87.5169,92.016,87.5212C92.0254,87.5313,95.4477,90.9338,97.5679,94.2734C98.6045,95.9072,100.283,99.3118,100.617,100.586C102.359,107.233,103.7,109.653,103.687,108.687L83.4733,103.421C83.4733,103.421,93.2258,117.062,97.5679,119.296C110.119,125.754,121.511,123.515,127.613,125.784C133.715,128.053,174.354,191.845,206.311,198.456C238.269,205.067,250.774,197.599,262.551,195.36C274.328,193.121,247.974,152.102,247.974,152.102Z" stroke="none" fill="#FF9898" fill-rule="evenodd"/>
                    <g id="Clipped-8" stroke="none" stroke-width="1" fill="none" fill-rule="evenodd" transform="translate(82.9315,82.0018)">
                        <g id="Shape-28"/>
                        <g id="Group-11" mask="url(#mask-20)">
                            <g id="Shape-29" transform="translate(23.806,35.3442)">
                                <path d="M127.017,41.0497L127.06,41.0656C128.586,41.6181,130.122,42.1454,131.644,42.7109C138.966,45.4295,146.325,49.0772,152.038,54.5021C152.29,54.7416,152.539,54.9825,152.785,55.2256C157.983,65.8599,161.762,76.8829,155.813,78.014C146.793,79.7292,127.492,84.7726,127.017,84.4293C124.347,82.4962,113.245,78.019,110.989,75.687C106.957,71.5171,101.044,69.2789,101.15,62.3983C101.219,57.9543,103.852,54.4264,106.861,51.3529L106.898,51.4048C109.855,49.1132,118.936,44.7392,127.017,41.0497Z" stroke="none" fill="#FF7373" fill-rule="evenodd"/>
                                <path d="M109.565,48.0291C109.565,48.0291,101.705,53.0833,101.147,60.0526" stroke="#FFFFFF" stroke-width="4" fill="none"/>
                                <path d="M0.240945,5.43795C5.26329,4.50458,10.1991,2.98334,15.1745,1.88045C17.7888,1.30124,21.2313,0.0858358,23.8471,1.10865C27.1056,2.38321,27.3971,7.57231,27.8674,10.3948C28.6054,14.8236,30.3995,18.8204,33.534,22.0663C38.9733,27.699,45.9362,31.8559,52.2686,36.4038C61.7758,43.231,70.9844,50.5277,81.4121,55.9498C87.9004,59.3234,95.5911,62.0586,103.004,61.7297C111.787,61.3394,119.436,57.4949,128.116,62.2007C135.31,66.1022,139.794,73.7279,142.154,81.5123C132.703,83.7815,120.184,85.3735,99.574,81.1098C67.6169,74.499,26.9772,10.7071,20.8757,8.43788C16.3475,6.75434,8.90705,7.55283,0.240945,5.43795Z" stroke="none" fill="#FF7373" fill-rule="evenodd"/>
                            </g>
                        </g>
                    </g>
                    <path id="Shape-30" d="M349.416,388.677C338.385,462.102,301.898,539.173,264.521,602.042C260.75,608.386,245.923,606.889,248.969,595.895C255.964,570.65,262.173,529.354,264.19,507.007C264.516,503.176,265.312,499.401,266.559,495.764C274.236,473.068,287.28,473.004,285.549,456.175C280.065,402.84,288.584,333.104,292.621,334.807" stroke="none" fill="#001B69" fill-rule="evenodd"/>
                    <path id="Shape-31" d="M403.834,312.155C410.862,421.62,391.793,526.425,348.444,619.543C345.667,625.507,334.375,624.04,333.698,616.507C333.698,616.507,334.907,566.599,335.428,530.47C335.494,525.624,336.254,520.812,337.686,516.181C344.797,493.046,354.183,485.552,350.827,472.315C330.289,409.434,328.255,380.084,325.95,369.541C314.411,370.169,278.379,352.087,285.701,312.155C286.489,307.854,284.251,302.249,289.551,299.605C316.918,285.952,400.382,281.476,403.834,298.184" stroke="none" fill="#003180" fill-rule="evenodd"/>
                    <path id="Shape-32" d="M324.114,290.347C358.532,285.136,401.381,286.312,403.834,298.184L403.834,307.085L403.816,307.14C375.553,294.967,319.988,301.682,285.25,314.974C285.376,314.047,285.526,313.107,285.701,312.155C286.489,307.854,284.251,302.249,289.551,299.605C295.619,296.578,304.445,294.002,314.545,292.008L324.114,290.347Z" stroke="none" fill="#001B69" fill-rule="evenodd"/>
                    <rect id="Rectangle-path" stroke="none" fill="#003180" fill-rule="evenodd" width="6.27252" height="20.8408" transform="translate(0,0) translate(385.126,287.412)"/>
                    <path id="Shape-33" stroke="none" fill="#003180" fill-rule="evenodd" d="M330.151,288.232L323.911,288.865L326.012,309.599L332.252,308.967Z"/>
                    <path id="Shape-34" stroke="none" fill="#003180" fill-rule="evenodd" d="M304.837,291.479L298.596,292.111L300.697,312.845L306.938,312.213Z"/>
                    <path id="Shape-35" d="M663.697,35.4564C658.847,18.5619,641.218,8.7968,624.322,13.6462C585.878,24.6793,520.295,43.5012,481.853,54.5343C464.956,59.3837,455.19,77.0103,460.04,93.9048C460.04,93.9048,460.04,93.9048,460.04,93.9056C464.89,110.8,482.519,120.564,499.416,115.715C537.858,104.683,603.441,85.8601,641.884,74.8276C658.78,69.9783,668.547,52.3509,663.697,35.4564C663.697,35.4564,663.697,35.4564,663.697,35.4564Z" stroke="none" fill="#0981F3" fill-rule="evenodd"/>
                    <g id="Clipped-9" stroke="none" stroke-width="1" fill="none" fill-rule="evenodd" transform="translate(458.778,12.0348)">
                        <g id="Shape-36"/>
                        <path id="Shape-37" d="M120.574,56.1395C122.742,60.365,124.339,65.5779,124.269,70.3702C124.236,72.7044,124.321,76.241,136.812,75.9553C138.617,75.9135,123.164,80.8876,122.802,82.6592C121.843,87.3621,116.861,92.0658,111.751,90.7472C108.798,89.9848,108.788,84.9998,109.277,82.6787C110.561,76.5807,115.941,72.2507,117.656,66.2422C118.218,64.2752,118.417,62.2274,118.45,60.1868C118.474,58.6886,118.158,56.7202,119.324,55.5228" fill="#0055F2" mask="url(#mask-22)"/>
                    </g>
                    <path id="Shape-38" d="M324.946,98.6691C324.946,98.6691,324.012,115.284,332.177,129.755C339.878,143.403,297.726,145.401,297.726,145.401C297.726,145.401,306.73,125.348,304.699,108.447C302.669,91.5462,324.946,98.6691,324.946,98.6691Z" stroke="none" fill="#FFC1B1" fill-rule="evenodd"/>
                    <path id="Shape-39" d="M341.841,126.838C326.167,118.588,310.591,118.392,297.136,124.208C293.941,125.606,291.676,128.533,291.128,131.978C289.865,139.575,287.734,152.951,287.734,152.951L344.696,150.209L341.841,126.838Z" stroke="none" fill="url(#Gradient-0)" fill-rule="evenodd"/>
                    <path id="Shape-40" d="M325.829,44.9322C325.829,44.9322,351.125,64.3737,348.4,88.0089C345.886,109.818,333.001,112.289,325.829,113.271C318.658,114.253,304.515,112.077,291.709,91.1913C271.634,58.4481,308.472,28.5917,325.829,44.9322Z" stroke="none" fill="#FFC1B1" fill-rule="evenodd"/>
                    <path id="Shape-41" d="M326.284,113.207C324.787,107.906,324.738,102.079,324.854,98.9446C324.874,98.5602,325.126,98.2269,325.49,98.1029C325.854,97.9788,326.258,98.0884,326.509,98.3806C328.722,100.695,333.405,104.727,340.644,106.873C336.006,111.497,330.338,112.631,326.284,113.207Z" stroke="none" fill="#FF9898" fill-rule="evenodd"/>
                    <path id="Shape-42" d="M264.439,65.9252C264.56,53.9551,271.578,46.6778,279.354,42.7229C287.13,38.7679,303.072,32.2617,306.833,24.3143C310.593,16.3662,310.104,-0.204418,322.845,0.0473189C338.764,0.362531,339.142,23.9328,337.438,33.4439C335.732,42.9544,329.048,52.6856,324.96,56.0498C320.872,59.414,312.216,60.418,312.216,60.418C312.216,60.418,314.911,67.9384,312.965,72.0975C307.019,71.3704,306.833,77.0962,306.833,77.0962C306.831,80.8441,314.829,91.9977,320.166,84.4788C320.166,84.4788,325.526,99.8621,316.727,107.147C307.927,114.432,304.02,114.413,300.283,111.468C296.546,108.523,298.477,97.916,292.456,92.5531C286.436,87.1902,264.244,85.4468,264.439,65.9252Z" stroke="none" fill="#001B69" fill-rule="evenodd"/>
                    <path id="Shape-43" d="M342.881,132.246C342.881,132.246,396.134,138.074,434.472,155.115C449.757,145.503,454.347,145.955,461.678,144.259C491.885,137.273,501.286,136.755,513.641,130.789C537.725,119.159,543.24,114.847,543.24,114.847C543.24,114.847,545.772,104.194,550.608,99.4517C555.444,94.7098,564.617,87.4924,564.617,87.4924L574.178,74.8904C574.178,74.8904,574.615,70.5012,574.893,67.7076C574.95,67.1327,575.25,66.6098,575.717,66.27C576.184,65.9303,576.774,65.8062,577.339,65.9288C577.339,65.9288,577.339,65.9288,577.34,65.9288C579.089,66.309,580.422,67.7321,580.684,69.5029C581.166,73.3035,581.099,77.5398,580.123,80.9876C580.123,80.9876,578.369,89.6304,575.118,93.9892C578.091,93.0861,596.262,87.9209,596.262,87.9209C596.262,87.9209,589.682,102.375,581.566,110.314C573.45,118.253,557.88,122.824,554.515,124.594C551.15,126.363,470.676,203.864,397.028,188.018C323.381,172.172,342.881,132.246,342.881,132.246Z" stroke="none" fill="#FFC1B1" fill-rule="evenodd"/>
                    <g id="Clipped-10" stroke="none" stroke-width="1" fill="none" fill-rule="evenodd" transform="translate(340.469,65.4117)">
                        <g id="Shape-44"/>
                        <path id="Shape-45" d="M89.8308,86.7757C94.6237,88.6489,102.246,94.1612,103.539,97.1265" stroke="#FFFFFF" stroke-width="4" mask="url(#mask-25)"/>
                    </g>
                    <path id="Shape-46" d="M359.873,174.2C361.285,169.576,363.542,165.132,366.52,161.127C374.797,149.994,411.537,136.299,411.537,150.851C411.537,156.824,405.76,167.662,409.291,171.739C414.316,177.542,460.015,172.476,472.471,167.521C523.076,147.388,545.743,131.856,561.293,113.794C561.293,113.794,557.16,122.258,555.552,124.113C555.134,124.291,554.785,124.452,554.515,124.594C551.15,126.363,470.676,203.864,397.028,188.018C380.255,184.409,368.313,179.551,359.873,174.2Z" stroke="none" fill="#FF9898" fill-rule="evenodd"/>
                    <path id="Shape-47" d="M413.174,146.604C427.939,167.051,385.257,203.315,385.257,203.315C385.257,203.315,379.467,200.565,373.438,197.702C394.249,239.319,398.68,266.177,403.47,289.15C408.81,302.86,403.47,302.468,403.47,302.468C403.47,302.468,394.976,292.898,361.16,293.964C329.718,294.896,297.856,301.076,285.906,311.373C280.723,305.578,287.115,297.832,287.18,289.127C287.391,260.464,283.185,221.09,269.513,203.315C263.261,205.962,244.366,215.63,244.366,215.63C244.366,215.63,211.218,183.318,222.871,163.395C249.023,139.64,343.804,115.272,413.174,146.604Z" stroke="none" fill="#0981F3" fill-rule="evenodd"/>
                    <g id="Clipped-11" stroke="none" stroke-width="1" fill="none" fill-rule="evenodd" transform="translate(219.996,131.051)">
                        <g id="Shape-48"/>
                        <g id="Group-12" mask="url(#mask-27)">
                            <g id="Shape-49" transform="translate(38.2339,-23.0819)">
                                <path d="M115.237,89.7461C108.006,85.6764,102.734,82.1002,100.629,84.1429C111.783,95.0686,113.027,92.8123,117.436,110.28C119.543,118.631,114.304,125.465,117.436,133.03C119.375,137.715,124.764,140.732,125.923,145.696C127.524,152.548,131.465,160.18,127.076,163.788C126.25,164.468,109.968,166.793,109.251,168.084C106.461,173.104,121.146,171.55,124.401,171.414C125.107,171.385,129.358,171.165,129.746,172.324C130.475,174.494,127.457,177.359,128.56,179.476C131.409,184.94,139.476,186.059,143.748,190.09C149.003,195.047,151.035,202.42,156.651,207.177C159.925,209.95,164.1,211.694,168.16,212.97C179.496,216.532,191.082,214.289,200.682,207.472C219.461,194.136,214.856,165.041,207.114,147.136C198.1,126.288,182.382,108.408,163.268,96.2414C158.541,93.2329,149.704,110.769,143.748,110.28C137.278,109.749,132.581,96.2963,125.923,98.22" stroke="none" fill="#33A4FF" fill-rule="evenodd"/>
                                <path d="M155.146,61.6958C134.105,58.2198,123.026,35.7055,101.787,31.8011C91.2455,29.8637,81.0298,26.2997,70.4975,24.5642C66.3639,23.8833,62.1834,23.5176,58.0044,23.2622C57.0514,23.2038,53.8419,23.5558,54.1182,22.3649C56.7816,10.8737,73.8527,6.86903,83.251,4.69933C89.4889,3.2596,95.8609,2.26347,102.226,1.60852C120.289,-0.250294,139.475,-1.80544,156.281,6.19821C161.897,8.87283,167.795,12.0769,170.974,17.6476C176.495,27.3225,177.057,44.5524,167.425,51.9913C163.66,54.8996,161.741,63.0461,153.788,60.7126" stroke="none" fill="#33A4FF" fill-rule="evenodd"/>
                                <path d="M33.3746,73.7106C40.5755,81.896,62.3306,147.382,44.4905,191.57C38.4625,206.502,46.8855,230.215,26.6742,232.598C22.0638,233.142,16.0214,233.049,12.3539,229.676C-10.6745,208.507,6.14411,139.363,11.7544,111.054C14.6616,96.3828,3.26791,63.3144,26.6742,70.5823" stroke="none" fill="url(#Gradient-1)" fill-rule="evenodd"/>
                                <path d="M12.0235,97.5737C7.44334,91.1577,2.52199,81.7172,4.48635,69.5523" stroke="#0054F2" stroke-width="4" fill="none"/>
                            </g>
                        </g>
                    </g>
                    <path id="Shape-50" d="M584.856,106.628C583.802,107.953,582.7,109.202,581.563,110.314C574.195,117.521,560.683,121.953,555.738,124.032C556.833,121.401,557.965,118.786,559.106,116.175C559.726,114.756,560.368,111.839,561.713,110.908C565.658,108.176,577.208,109.088,584.856,106.628Z" stroke="none" fill="#FF9898" fill-rule="evenodd"/>
                    <path id="Shape-51" d="M392.602,310.007C397.466,422.734,376.78,518.383,343.943,619.818" stroke-opacity="0.5" stroke="#0981F3" stroke-width="2" fill="none"/>
                    <path id="Shape-52" d="M335.126,422.613C316.261,484.773,290.107,541.566,258.711,598.977" stroke-opacity="0.5" stroke="#0981F3" stroke-width="2" fill="none"/>
                    <path id="Shape-53" d="M312.978,74.8168C307.936,75.8072,310.442,81.9095,316.022,83.6016" stroke="#FF9898" stroke-width="4" fill="none"/>
                    <path id="Shape-54" d="M313.324,60.4952C330.545,56.8548,341.198,45.2121,342.334,22.229" stroke="#001B69" stroke-width="4" fill="none"/>
                    <path id="Shape-55" d="M313.324,60.4952C327.003,59.5986,337.431,53.3312,343.452,39.9314" stroke="#001B69" stroke-width="4" fill="none"/>
                    <ellipse id="Oval-9" stroke="none" fill="#FFFFFF" fill-rule="evenodd" rx="25.2805" ry="25.2776" transform="translate(0,0) translate(491.705,85.3955)"/>
                    <g id="Clipped-12" stroke="none" stroke-width="1" fill="none" fill-rule="evenodd" transform="translate(465.991,59.6412)">
                        <g id="Oval-10"/>
                        <g id="Group-13" mask="url(#mask-30)">
                            <g transform="translate(6.49254,-2.88524)">
                                <path id="Shape-56" d="M18.2484,44.6909C18.2484,44.6909,13.5557,52.7631,14.474,59.3782C15.9212,69.804,27.7232,62.7453,26.781,59.3782C26.0878,59.7374,26.9974,49.8367,28.9567,46.611C30.564,43.9667,18.2484,44.6909,18.2484,44.6909Z" fill="#FFC1B1"/>
                                <path id="Shape-57" d="M14.3745,58.3193C14.0383,51.9328,18.2484,44.6909,18.2484,44.6909C18.2484,44.6909,19.9667,44.5899,22.0364,44.6007L26.9859,48.2722C22.0624,49.3715,16.9347,53.4815,14.8571,57.2777C14.6811,57.5995,14.5267,57.9536,14.3745,58.3193Z" fill="#FF9898"/>
                                <ellipse id="Oval-11" fill="#313647" rx="10.4595" ry="8.88437" transform="translate(0,0) translate(18.8731,9.36115)"/>
                                <path id="Shape-58" d="M10.0317,36.2444C-3.12796,30.7184,-3.64087,13.6025,10.8808,10.1286C18.433,8.32175,29.3044,9.16784,32.7289,18.2455C34.4393,22.7818,34.2381,30.1882,28.9567,32.8744C27.1605,33.7883,16.271,37.9077,14.4885,36.2444L10.0317,36.2444Z" fill="#313647"/>
                                <path id="Shape-59" d="M26.6562,26.8421C27.7354,26.4627,29.2619,27.4884,30.0619,29.1315C30.8627,30.7739,30.6354,32.4164,29.5562,32.7958C28.4763,33.1752,26.9498,32.1495,26.1498,30.5063C25.3498,28.8632,25.5763,27.2215,26.6562,26.8421Z" fill="#FFC1B1"/>
                                <path id="Shape-60" d="M13.4273,21.306C18.3133,19.6117,25.2719,24.4596,28.9567,32.1264C32.6423,39.7925,31.667,47.3922,26.781,49.0873C21.8957,50.7816,14.9365,45.9337,11.2516,38.2669C7.5667,30.6008,8.5413,23.0011,13.4273,21.306Z" fill="#FFC1B1"/>
                            </g>
                        </g>
                    </g>
                    <ellipse id="Oval-12" stroke="none" fill="#EBF6FF" fill-rule="evenodd" rx="25.2805" ry="25.2776" transform="translate(0,0) translate(49.57,63.9597)"/>
                    <g id="Clipped-13" stroke="none" stroke-width="1" fill="none" fill-rule="evenodd" transform="translate(23.7772,38.0019)">
                        <g id="Oval-13"/>
                        <g id="Group-14" mask="url(#mask-32)">
                            <g id="Shape-61" transform="translate(7.93533,-6.49179)">
                                <path d="M22.1432,43.8809C21.9318,48.4028,18.8565,64.6351,17.6453,64.6928C16.3439,64.7556,0.78704,61.0574,1.60366,60.3952C3.28595,59.0312,7.77662,44.4594,7.10861,39.8531C6.8655,38.176,12.4361,31.8797,15.168,32.3284" fill="#FFC1B1"/>
                                <path d="M21.9917,45.6199C22.0689,44.9361,22.1215,44.3468,22.1432,43.8809L15.168,32.3284C12.4361,31.8797,6.8655,38.176,7.10861,39.8531C7.51404,42.6489,6.01931,49.114,4.40555,54.0701C5.98107,55.372,7.77879,56.1547,9.71573,56.2722C14.8088,56.5817,19.4964,52.2127,21.9917,45.6199Z" fill="#FF9898"/>
                                <path d="M17.6135,8.8447C10.5085,8.41335,4.19202,17.0871,3.51607,28.2032C2.84085,39.3186,8.06085,48.6934,15.1659,49.1248C22.2709,49.5568,28.5874,40.8824,29.2626,29.767C29.9386,18.6509,24.7186,9.27604,17.6135,8.8447Z" fill="#FFC1B1"/>
                                <path d="M4.98194,23.1519C2.54508,23.004,0.411916,25.429,0.221468,28.5646C0.0310199,31.6994,1.8547,34.3653,4.29157,34.5132C6.72844,34.6611,8.8616,32.236,9.05205,29.1005C9.24249,25.9657,7.41881,23.2997,4.98194,23.1519Z" fill="#FFC1B1"/>
                                <path d="M18.221,1.87973C10.9298,-5.06215,-3.66107,11.0245,4.47553,23.571C5.49269,21.4842,7.35677,19.9817,9.22013,18.5672C13.4028,15.3927,20.9514,14.8316,20.9182,8.08011C20.9139,7.14601,20.7516,6.21264,20.4717,5.32326C20.1045,4.15619,19.4091,3.08143,18.6091,2.16681L18.221,1.87973Z" fill="#001B69"/>
                                <path d="M20.1615,0.896588C12.9909,3.43776,18.7649,11.8691,22.703,15.0977C24.5223,16.5887,26.4304,18.177,27.7953,20.1195C28.4763,21.0875,28.3695,22.2437,28.8745,23.2976C43.2807,16.1025,31.3525,-3.07061,20.1615,0.896588Z" fill="#001B69"/>
                            </g>
                        </g>
                    </g>
                </g>
            </g>
        </g>
    </g>
</svg>
