<svg id="Layer_1" data-name="Layer 1" xmlns="http://www.w3.org/2000/svg" viewBox="0 0 719.31 632.3"><defs><style>.cls-1{opacity:0.21;isolation:isolate;}.cls-2{fill:#35a786;}</style></defs><title>graph_surface_1 of 1 [Recovered]</title><g class="cls-1"><path class="cls-2" d="M863.09,330q8.08-1.14,16.28-2.35c-.42-11.39-.62-22.4-.6-33q10.2-1.51,20.56-3.17,1.18,15.68,2.91,32.62,8.32-1.33,16.7-2.73c-4.09-27.35-7.38-52.36-9.75-74.17q-6.12,1-12.2,2c.28,9.3.76,19.16,1.43,29.51q-9.81,1.57-19.51,3c.22-10.49.67-20.5,1.36-29.94q-6,.88-11.9,1.71c-3.29,22.69-5.07,48.48-5.28,76.49" transform="translate(-615.79 -175.22)"/><path class="cls-2" d="M820.07,271.24c4.74-.5,9.58-1,14.48-1.61a435.38,435.38,0,0,0-12.68,65.62q7.71-.9,15.61-1.9a476.32,476.32,0,0,1,9.29-65.2q7.5-.94,15.18-2,.87-6.18,1.89-12.07c-13.5,1.85-26.62,3.44-39.12,4.75q-2.43,6.06-4.65,12.4" transform="translate(-615.79 -175.22)"/><path class="cls-2" d="M739.19,342.3q5.59-.24,11.45-.59A357.74,357.74,0,0,1,772.3,287.1c-5.34,25.74-5.44,26.23-6.25,41.47q4.55-.33,9.23-.7C791.19,300,791.19,300,799.82,286.32a386.9,386.9,0,0,0-15.4,52.83q6.52-.58,13.24-1.27c5.24-28.62,13-55.12,22.89-78.62q-6.16.63-12.11,1.15c-16.05,23.21-18.52,26.78-31,47.29,4.26-26.15,4.52-27.71,11-45.78q-5.45.34-10.59.57a341.92,341.92,0,0,0-38.64,79.81" transform="translate(-615.79 -175.22)"/><path class="cls-2" d="M695.14,342.6c1.46.07,3,.12,4.5.17,7.06.22,14.76.25,23,.08l4.94-.12a340.53,340.53,0,0,1,41.75-79.92q-4.27.12-8.31.15a336.52,336.52,0,0,0-38.53,65.15c-5.62,0-10.94,0-15.92-.17-1.48,0-2.91-.1-4.31-.16q-3.75,7.31-7.15,14.82" transform="translate(-615.79 -175.22)"/><path class="cls-2" d="M694.15,278.92c6.24-7,10-10.57,11.29-10.67,0,.85-.09,1.73-8,10.81a339.86,339.86,0,0,0-23.82,30.63c-5.32,7.7-7,9.38-8.12,9.79-.71-1,1.94-5.8,7.87-14.29a4.25,4.25,0,0,1-.27-2.06c-3.1,4.4-18.48,26.57-16.91,31.41l.19.24.18.21.16.18.14.14a1.14,1.14,0,0,0,.11.11l.08.08.05,0v0c6.19-5.94,7.66-7.36,19.07-24.2a342.51,342.51,0,0,1,23.53-30.83c12.14-14.17,19.53-23,18.56-25.06-2.34-1.15-14.27,10.39-24.36,21.6a3.87,3.87,0,0,0,.24,1.85" transform="translate(-615.79 -175.22)"/><path class="cls-2" d="M658.59,324c4.22-7,9-13.82,13.43-20.74l-.28.4L658.59,324" transform="translate(-615.79 -175.22)"/><path class="cls-2" d="M714.08,254.22l-6.2,6.13c-.69.7-4.53,4.75-7.39,7.81-.75.81-1.49,1.61-2.23,2.43-2.3,2.51-4.35,4.8-5.23,5.82L682.17,289.6c.69-.87,7.08-8.38,14.63-16.71l1.83-2c10-10.74,21.39-22.23,21.5-22.34a4.21,4.21,0,0,1,.37-.36l-6.42,6" transform="translate(-615.79 -175.22)"/><path class="cls-2" d="M1149.69,196.61c10.26,5.09,16.63,8.19,18.21,7.83V204a7.24,7.24,0,0,0-2.35-2.33,359.85,359.85,0,0,0-42.22-20.47,6.2,6.2,0,0,1,2,2c1.67,2.14,10.7,6.62,24.36,13.4m-.12.28c-15.87-7.89-24.93-12.45-26.64-14.64a6.52,6.52,0,0,0-2.3-2.2,359.56,359.56,0,0,1,56,28.17l11.72,7.56q-10-6.75-20.55-12.83a7.26,7.26,0,0,1,2.39,2.4l-.09.44c-2.15.12-9.51-3.45-20.49-8.9" transform="translate(-615.79 -175.22)"/><path class="cls-2" d="M1117.4,194.2a35.74,35.74,0,0,0,5.15-3.78,375.91,375.91,0,0,1,82.91,50.87l.46-.43a375.88,375.88,0,0,0-83-50.75,10.94,10.94,0,0,0,2.55-3.37l-2.42-1c-.94,2.2-3.61,4.68-8,7.38l2.33,1.1" transform="translate(-615.79 -175.22)"/><path class="cls-2" d="M909.86,446.54c2,8.32,6.18,25.64,31.52,16.58-.16-.82-.32-1.65-.47-2.47-23.17,7.73-26.08-6.17-27.81-14.48-4.08-24.89-7.55-49.11-10.38-72.26l-2.92.46c2.71,23.12,6.07,47.31,10.06,72.17" transform="translate(-615.79 -175.22)"/><path class="cls-2" d="M802.9,436.65c2.27,27.82,16.46,40.9,42.16,38.88,49.81-9.08,36.78-73.68,15.54-86.9s-61.58.52-57.7,48m.64,63.41-2.19-1.9c7.48-6.38,17.44-14.89,25-21.23-37.7-13.56-32.64-77.19-1-91.57,6.67-3,11.79-3.43,17.21-3.85,48.85,1.2,48.44,68.47,24.85,87.71-9.5,7.74-23.91,11-37.61,8.58-7.88,6.67-18.39,15.55-26.23,22.26" transform="translate(-615.79 -175.22)"/><path class="cls-2" d="M720,454.48c-.48,48.11,42.42,32.92,50.44,25,9-8.87,9.11-22,9.14-28.26a524.41,524.41,0,0,1,2.08-61.84l-2.54.24a516,516,0,0,0-2.33,60.48c-.28,45.75-39.81,36.45-46.82,30-7.75-7.18-7.63-19.9-7.58-26a416,416,0,0,1,6.63-60.8l-2.2.11A411.36,411.36,0,0,0,720,454.48" transform="translate(-615.79 -175.22)"/><path class="cls-2" d="M658.56,488.47q5.22.33,11.09.51c8.67.27,18.13.31,28.28.11a385.92,385.92,0,0,1,9-95c-9.09.18-17.56.15-25.33-.1q-4.9-.15-9.31-.42l-.66,2.36q4.43.27,9.35.42c7.23.23,15.06.27,23.42.14a378.9,378.9,0,0,0-6.6,40.29c-8.87.15-17.17.11-24.83-.14q-4.35-.14-8.33-.35l-.36,2.45c2.67.14,5.45.26,8.36.35,7.68.25,16,.29,24.9.14a386.34,386.34,0,0,0-1.94,47.41c-9.29.15-18,.11-26-.15-4-.13-7.83-.3-11.4-.53l.33,2.54" transform="translate(-615.79 -175.22)"/><path class="cls-2" d="M634.64,414.69c-3.9,18.07,2.6,19.71,5.05,20.32q4.86.94,11,1.63a334.2,334.2,0,0,1,9.5-41.71q-6.3-.71-11.19-1.7c-8.22-1-12.5,13-14.32,21.46m-9.28,68.57-.81-.29c.35-3.47.35-3.47,1.58-18.94q.24-3,.54-5.92c2.07-16.53,4.57-20.48,9.06-22.69-9.46-10.45,3.61-45.06,13-44.67.3,0,.68.08,1,.12,3.6.73,7.76,1.35,12.51,1.85a333.39,333.39,0,0,0-14.28,94.87l-1.46-.16a330.46,330.46,0,0,1,3.83-48.34q-6.15-.69-11-1.65c-6.29-.43-9.31,2.42-11.76,21.22-.21,2.16-.4,4.31-.57,6.48-1.08,14-1.08,14-1.53,18.12" transform="translate(-615.79 -175.22)"/><path class="cls-2" d="M619.71,435.72c-.07.56-.13,1.13-.21,1.69a300.25,300.25,0,0,0-3.71,39.85c.08.13.18.26.27.39a298.48,298.48,0,0,1,3.64-39.42c.93-5.4,4.64-21.17,18.89-50.77l-.67-.33a224.83,224.83,0,0,0-17.77,47.38,249.56,249.56,0,0,1,12.42-55.12c0-.15.06-.3.1-.45-8.67,28.51-10,32.9-13,56.78" transform="translate(-615.79 -175.22)"/><path class="cls-2" d="M949.59,685.46c-4.1-17.87,14.63-14.79,18.55-12.34a11.74,11.74,0,0,1,4.92,6.66Q977.55,694.63,982,708c3.11,10.38-10.17,12.5-16.06,9.56-4.19-2.08-6.3-6.16-7.21-7.9Q949.78,711,941,712.27c8.64,14.87,19.84,20.19,37.43,17.8l2-.31,1.75-.28,1.49-.23,1.22-.19.94-.15.68-.11.41-.06.13,0c9.5-5.82,16.36-10,13.06-23.66-2.49-9-5-18.5-7.62-28.46-4.64-15.84-17.88-22.4-39.35-19.48-20.66,3.59-27.57,13.18-22.4,31.08q9.38-1.32,18.88-2.74" transform="translate(-615.79 -175.22)"/><path class="cls-2" d="M882.75,716.24q7.38-.81,14.93-1.71,3.77,6.59,7.64,12.76,7.53-.88,15.22-1.87-3.56-6.23-7-12.84,7.66-1,15.47-2c-1.81-3.81-3.62-7.72-5.4-11.72q-8,1.09-16,2.1Q904.25,694,901,686.67q-8.52,1.1-16.86,2.08,3.52,7.28,7.19,14.19-7.78.93-15.39,1.76,3.36,5.91,6.83,11.54" transform="translate(-615.79 -175.22)"/><path class="cls-2" d="M831.13,721q6.58-.47,13.41-1,4.76,6.48,9.71,12.55,6.81-.57,13.85-1.23-4.65-6.09-9.14-12.6c4.68-.44,9.44-.91,14.25-1.41q-3.62-5.61-7.13-11.5-7.46.76-14.7,1.45-4.32-6.84-8.46-14.05-7.8.74-15.34,1.36,4.36,7.2,8.94,14-7,.59-13.82,1.08,4.13,5.83,8.43,11.38" transform="translate(-615.79 -175.22)"/><path class="cls-2" d="M888,624.27q8.89-1.17,17.94-2.44c-5.84-19.58-11.29-40.33-16.26-62.09,19.24,30.1,19.24,30.1,30.64,46.55l14.38-2.16c4.22-30.37,4.22-30.37,7.26-50.5,4.66,21.17,9.45,41.44,14.29,60.64q9.38-1.5,18.8-3.08c-5.84-24.82-11.78-51.39-17.69-79.35q-1.77-8.34-3.48-16.64-12.23,2.06-24.37,4c-4.25,32.54-5,38.4-7.83,63.06-18.16-28.91-20.06-31.93-34.24-56.74q-11.79,1.68-23.38,3.21,1.61,8.31,3.37,16.65c5.91,28,12.85,54.38,20.57,78.92" transform="translate(-615.79 -175.22)"/><path class="cls-2" d="M815.18,604.59c3.3,9.73,11.1,11.17,17.06,10.67,5.88-.77,12.33-3.75,9.7-13.54q-5.51-18.53-10.09-38.26c-4-15.4-21.18-13.23-25.71-7-2.67,3.71-1.74,8.18-1.39,9.86q4.65,19.71,10.43,38.22m-18.43,2.67q-6.25-19.31-11.16-40c-4.08-19.74,6.08-31.66,28.62-33.57,20-.75,33.08,8.4,37.73,26.44q4.71,20.67,10.29,40.07c8.39,32.76-32.48,36.54-50.19,26.23a34.12,34.12,0,0,1-15.29-19.19" transform="translate(-615.79 -175.22)"/><path class="cls-2" d="M734.68,637.65c4.87-.11,9.91-.27,15.08-.49.61-30.69.62-31.28,4.94-61.95a432.52,432.52,0,0,0,20.14,60.59q7.63-.49,15.58-1.12a468,468,0,0,1-23.77-78.51q-1.77-8.34-3.23-16.67-8.91.69-17.43,1.25c-6.55,34.84-6.81,36.2-9.1,67.15a405.77,405.77,0,0,1-13.62-49.11q-1.77-8.34-3.18-16.67-7.27.28-14.18.45,1.4,8.34,3.15,16.67a378.24,378.24,0,0,0,25.62,78.41" transform="translate(-615.79 -175.22)"/><path class="cls-2" d="M670.43,609.16c14.31,35.07,37.47,32.45,42.28,23.7,3.7-6.74.1-16.91-1.26-20.75a364.14,364.14,0,0,1-12.05-38.8c-6.71-25.1-19.36-31.23-28.78-32-7.77,0-17.45,3-11.89,30,3.38.34,7,.64,10.92.87-3.4-17.74,8.47-11.06,8.6-11,3.3,2.12,5.76,6.14,7.32,11.94A352.07,352.07,0,0,0,697.8,612c3.94,10.92-4.16,11-8,9.18-2.51-1.17-6.1-4-8.91-11q-1.37-3.56-2.66-7.15c2.4.16,4.89.29,7.49.4q-2.86-8.09-5.37-16.39-10-.42-18-1.26,3.63,11.93,8.09,23.36" transform="translate(-615.79 -175.22)"/><path class="cls-2" d="M646.65,604.52c2.22,5.41,5.59,12.11,9,13.3,2.62.38,2.44-3.28-.54-10.89a314.44,314.44,0,0,1-12.44-38.19c-3.48-13.14-7.79-15.52-9.23-13.83-.78.91-1.3,3.63.64,11.39a309.56,309.56,0,0,0,12.55,38.22m-4.11-1.17a306.5,306.5,0,0,1-13.2-40c-3.4-13.77-5.6-29.54,3.17-26.51,4.89,2.28,12,9.77,17.89,32.47a319.81,319.81,0,0,0,12.93,40c11,28.31.54,24.76-.7,24.26-5.67-2.29-13.37-13.84-20.09-30.15" transform="translate(-615.79 -175.22)"/><path class="cls-2" d="M642.58,609.67l0,0A305,305,0,0,1,621.87,547a6.23,6.23,0,0,1-.44-1.3c8.47,32.57,10.23,39.34,21.15,64M621.28,545l-3.1-17a6.09,6.09,0,0,0,.5,1.64,8.5,8.5,0,0,0,1.87,2.51q1.29,8.31,3.05,16.66A305.6,305.6,0,0,0,652,627.6a8.93,8.93,0,0,1-1.21-1.38,6.78,6.78,0,0,1-.47-.76L645,614.79c-12.42-29.18-17.57-41.26-23.68-69.82" transform="translate(-615.79 -175.22)"/><path class="cls-2" d="M783,746l1.7.08c-14.3-17.11-27.81-33.26-38.55-66.51h-2.1c9.44,24.45,9.81,25.41,18,39a157,157,0,0,0,19.53,25.62h-.07c-15.79-10.76-45.17-30.78-78.1-66.58l-1.4-.19C756.4,733.6,782.8,745.92,783,746" transform="translate(-615.79 -175.22)"/><path class="cls-2" d="M748.73,739.15c2.57,1.81,6.78,3.32,12.69,4.48a322.05,322.05,0,0,1-66.33-67.39c-6.91-1.36-11.87-3.11-15-5.21.49.67,1,1.34,1.5,2,2.91,2,7.51,3.66,13.86,5A318.15,318.15,0,0,0,722,709.3c-5.64-1.17-9.81-2.65-12.56-4.38l1.76,1.78c2.74,1.72,6.89,3.19,12.51,4.36A326.3,326.3,0,0,0,758.59,742c-5.54-1.16-9.51-2.63-12-4.38l2.1,1.56" transform="translate(-615.79 -175.22)"/><path class="cls-2" d="M1295.41,627c-6.13,12.45-7.89,16.42-8.18,18.46l.65-.12c.35-.39.42-.49.5-.58l.18-.24.15-.2.12-.17.09-.13.06-.09,0-.05v0l.68-1.09L1300,624.6l3.11-6.1.21-.45c-5,10-6.46,12-6.94,12.66l-.25-.44a56.83,56.83,0,0,1,2.77-6c.62-1.25,1.24-2.5,1.84-3.76,2.12-4.37,4.73-8.52,7-12.81l.06-.12.19-.33a83.61,83.61,0,0,0,4.45-9.44l7.84-21.33,3.68-12.11c2-7.34,2-8.34,2-9.4l-.6-.13-.62.61c-.13.17-12.77,18.45-9.43,28.62,3.69-9.8,4.67-11.86,5.62-13,.38.71.49.9-1.34,6.65-.33,1-.67,2-1,3.07-5.1,15.09-14.6,28.31-21.43,42.66-.58,1.21-1.16,2.41-1.75,3.61" transform="translate(-615.79 -175.22)"/><path class="cls-2" d="M1230.44,714.94c-3.08,2.87-5.32,4.85-6.81,6.16l12.52-11.51,12.77-13c-2.31,2.47-10.14,10.58-18.48,18.36m-.37.29c8.36-7.81,17.07-16.76,20.89-20.87l-14.81,15.23-14.84,13.53.19-.16c1.69-1.48,4.52-4,8.57-7.73" transform="translate(-615.79 -175.22)"/><path class="cls-2" d="M984.16,773.11c8.89-1.3,17.91-2.69,27-4.17q2.28,5.41,4.47,10.12-10.51,1.73-20.9,3.26c1.58,2.14,3.14,4.17,4.7,6.06q9.55-1.43,19.27-3c1.38,2.71,2.72,5.19,4,7.42q-10,1.63-19.81,3.06,2.46,2.31,4.9,4.2c7.5-1.09,15.14-2.29,22.83-3.58l3.41-.58c-3.39-8.21-7.6-20.89-12.45-37.38q-6.9,1.17-13.77,2.3c-9.67,1.58-19.28,3.06-28.75,4.44q2.53,4.11,5.07,7.85" transform="translate(-615.79 -175.22)"/><path class="cls-2" d="M983.73,803.28a62.61,62.61,0,0,1-6.26-8.89c5.86,2.21,13.67,5.18,19.61,7.18q4.38-.59,8.82-1.23c-16.2-6-17.89-6.66-30.39-12.16-1.23-12.37-1.28-12.85-.15-22.38q-7.18,1-14.27,2c.48,4.34,1,10.15,1.93,14.42-6.58-3.53-15.38-8.21-21.88-11.87q-6.89.82-13.6,1.57c24.09,11.66,24.55,11.89,37.56,17.36,4.65,10,4.93,10.64,10.25,15q4.14-.45,8.38-1" transform="translate(-615.79 -175.22)"/><path class="cls-2" d="M913.08,788.55c1.82,1,6.56,3.39,11.17,3.09q4.14-.35,8.39-.75-7.41-4.44-14.66-9.77c-3.17.3-6.3.58-9.37.84-4.22.44-1.7,2.67-.41,3.61.44.33.93.63,1.28.85,1.2.72,2.4,1.44,3.6,2.13m-9.18,1.18c-1.86-1-3.7-2-5.54-3.05-13.9-8.19-6-10.82-3.23-11.43a32.48,32.48,0,0,1,3.61-.51q4.9-.42,9.94-.89,6-.57,12.1-1.21c16.4,14.88,33.59,25.73,51.05,32-2.53.26-5,.51-7.46.74a145.47,145.47,0,0,1-22.07-9.12l-7.7.69c-9.38.64-20.86-2-30.7-7.2" transform="translate(-615.79 -175.22)"/><path class="cls-2" d="M874.15,789.93c4.3,1.92,8.23,3,10.77,3s4.89-.13,7.44-.22q-8.82-4-17.41-8.69c-2.82.1-5.56.19-8.22.24-.56,0-2.27.1-.78,1.37a21.27,21.27,0,0,0,3.88,2.26q2.14,1,4.32,2m53.41,17.58c-2.14,0-4.2,0-6.18,0-8.87-2.5-20.57-6.3-29.07-9.72a109.45,109.45,0,0,1-26.46-7.94q-2.34-1-4.67-2.09c-16.07-7.52-12.14-9.64-10.56-10.11a14,14,0,0,1,3.39-.4q4.32-.09,8.87-.26c3.29-.13,6.67-.28,10.14-.47A216.64,216.64,0,0,0,942.38,807c-2.13.11-4.22.21-6.25.29A223.29,223.29,0,0,1,905,798l-3.7.12c7.71,3.18,18.18,7.06,26.23,9.4" transform="translate(-615.79 -175.22)"/><path class="cls-2" d="M828.25,782.48A112.75,112.75,0,0,0,840,783.87q10.22,4.73,20.76,8.71-5.28-.39-9.32-1,7.85,2.87,15.87,5.34c2.49.39,5.35.71,8.6,1q10.49,3.33,21.23,5.92a85.21,85.21,0,0,1-8.65-1q7.8,1.83,15.72,3.29l1.33.24a84.83,84.83,0,0,0,10.17,1l1.88.09A291,291,0,0,1,833,777.13c-2.6-.1-5.05-.24-7.35-.4A125.15,125.15,0,0,1,813,775.25q7.5,3.79,15.21,7.23" transform="translate(-615.79 -175.22)"/><path class="cls-2" d="M887.2,802.5l-7.13-1.72,7.13,1.72" transform="translate(-615.79 -175.22)"/><path class="cls-2" d="M818.52,779.63c.92.4,6.54,2.76,10.39,4.35l3.12,1.28c4,1.58,6.12,2.41,7.06,2.76l5.45,2,10.88,3.69c-.28-.09-7-2.34-19.44-7.32l-2.51-1c-10.66-4.42-30.62-13.14-30.79-13.21l-.48-.22,16.32,7.69" transform="translate(-615.79 -175.22)"/><path class="cls-2" d="M1269.19,292.4c4.71,6,5.46,6.75,5.8,7v-.12a6.35,6.35,0,0,0-.83-1.47c-5.05-6.34-11.53-15-16.85-21.13a6.84,6.84,0,0,1,1.17,1.89c.53,1.06,2.44,3.57,7,9.26q1.86,2.28,3.66,4.6m.53,3.72c-1.73-2.25-3.48-4.47-5.27-6.66-5.47-6.74-15.64-19.28-17.53-23.61a6.52,6.52,0,0,0-1.17-1.87l-.28-.3,11.07,12.08c8.62,10.7,19.79,25.2,27.6,36.41a5.74,5.74,0,0,1,.6,1.15l.08.25-.19.21c-2.15-1.39-7.09-7.53-14.91-17.66" transform="translate(-615.79 -175.22)"/><path class="cls-2" d="M1300.42,356.4a19.07,19.07,0,0,0,2.49-3.22,327.32,327.32,0,0,0-56.79-81.67,16.37,16.37,0,0,1-2.21,2.86,331.55,331.55,0,0,1,56.51,82" transform="translate(-615.79 -175.22)"/><path class="cls-2" d="M1327,508.2c4.39-3.42,7-6.58,7.76-9.44a298.55,298.55,0,0,0-6.17-76.67q-2.27-10.68-5.24-21.06c0,.16-.09.31-.14.47q3,10.38,5.24,21.06a298.47,298.47,0,0,1,6.28,74.18c-.92,2.78-3.54,5.84-7.81,9.13l.08,2.33" transform="translate(-615.79 -175.22)"/></g><path class="cls-2" d="M702,267.34c2-2.2,4-4.36,6-6.57l-.1.09,6.2-6.13,6.42-6c-.42.51-4.57,5.37-18.53,18.65" transform="translate(-615.79 -175.22)"/><path class="cls-2" d="M678.12,299c-7.56,11.08-14.7,21.54-19.66,26.74l-.29.3-.23.25-.19.21-.15.18-.12.13-.08.1,0,.06h0a15.17,15.17,0,0,1,1.25-2.48l13.15-20.34c-4.37,6.27-4.67,7.12-4.77,7.4,1.39-1,6-7.67,7.54-9.87l2.4-3.44a59.79,59.79,0,0,0,4.56-7.15l0-.05,0,0a9.94,9.94,0,0,1,.65-.94L693,276.91a8.64,8.64,0,0,0-1.44,2c-1.4,2.87-2.71,4.72-11.19,16.78-.77,1.1-1.53,2.2-2.28,3.31" transform="translate(-615.79 -175.22)"/><path class="cls-2" d="M702.3,286.9c-5.62,8.91-14.33,21.38-24.91,26.81l-.73.36-.62.31-.52.26-.42.21-.32.16-.23.12-.14.07,0,0c-5.6-4.67,6.41-16.51,12.19-22.19-3.08,5.33-2.8,6.17-2.54,6.91,1.16.48,5.38-1.3,11-9.87q1.07-1.67,2.16-3.3c1.57-2.4,2.14-3.58,2.28-4.67s-1.18-1-1.48-1.68l0,0h-.18c-1.54-.85-3.45-1.9,9.14-16.06l1.74-1.92c9.91-10.71,19.69-19.2,25.53-22.16a3.42,3.42,0,0,1,2-.51c2,4-11.28,13.78-16.29,17.48,3.79-5,3.7-5.38,3.55-5.94-2.73.72-7.27,5.31-9.73,8-.7.76-1.39,1.53-2.08,2.31-4.76,5.41-4.12,6-2.67,6.63,2.84,1.15,3.31,3.07-4.66,15.55l-2,3.16" transform="translate(-615.79 -175.22)"/><path class="cls-2" d="M827.88,253.43c-1.61,6.35-4.6,18.17-23.71,19.74.12-.61.25-1.21.37-1.8,17.32-1.64,19.57-11.44,20.92-17.3,3.22-16.94,7.69-31.95,13.33-44.71l1.86-.42c-5.43,12.69-9.71,27.63-12.77,44.49" transform="translate(-615.79 -175.22)"/><path class="cls-2" d="M857.69,234.87c5.9-10.82,12.95-21.09,18.22-32.22l.1,0c.62,1.89,3.47,9.3,13.84,25.71q-16.2,3.14-32.16,6.53m47.61,16.28,2.92-.55c-12.17-17.13-23.66-33.31-31-49.56l-2,.41c-9.65,15.93-20.58,34-35.57,63.09l2.7-.6c4.26-8.23,10-19.2,14.35-27.37,11.2-2.39,22.54-4.69,33.93-6.89,4.33,6.47,10.16,15.09,14.66,21.47" transform="translate(-615.79 -175.22)"/><path class="cls-2" d="M941.55,244.67l-3.18.55c-15.42-18.22-28.74-34-38.9-48.5l2-.38c10.22,13.51,10.41,13.77,19,24.17,6.23,7.49,12.78,14.76,18.85,22.37l.13,0c1.66-8.88,4.3-17.57,5.8-26.48,1.85-10.94,3-17.53,3.41-28.09l2.1-.32c-.91,14.12-1.63,25.28-9.3,56.71" transform="translate(-615.79 -175.22)"/><path class="cls-2" d="M975.92,213.63c.34-20.13-2-27-2.3-27.68h.1c11.11,7.8,22.47,15.32,33.38,23.37q-15.32,2-31.18,4.32m59,17.34,2.7-.33c-19.27-15.15-37.46-29.47-63.82-46l-2,.27c1.83,13.38,3.4,24.93-.7,55l2.73-.42c.71-7.29,1.62-17,2-24.32,11.16-1.65,22.16-3.18,32.92-4.57,7.9,6.07,18.4,14.2,26.15,20.42" transform="translate(-615.79 -175.22)"/><path class="cls-2" d="M1085.38,212.34c12.42,14.08-11.08,16.53-22.52,15.13a42.44,42.44,0,0,1-25.58-12.41l2.37-.27c21.1,18.6,45.95,11.24,46.45,4.1,0-.15.66-16-37.59-19.68-9.37-.91-22.2-2.15-29-7.62-13.59-10.86-1.23-12.71,2.84-13.32,11.49-.51,19.82,1.63,30.74,7.9l-1.74.14c-20.55-11.44-38.42-7.71-35.45-.87,4.27,9.84,22.4,11.55,32.14,12.47,13.6,1.28,27.69,3.45,37.39,14.43" transform="translate(-615.79 -175.22)"/><path class="cls-2" d="M1102.28,185.11c-26.46-11.81-39.91-10.48-37.2-4.41,2.47,5.53,25.54,25.39,46.47,35.39,15.51,7.41,30.7,7.3,31.79,2,.6-2.88-2.41-6.33-5.32-9.67h1.63c10.34,10.78,8.1,15.81-6.68,15-29.42-1.69-77.09-41.8-69.74-47.07,1.1-.78,3.22-1,4.92-1.1,9.62,0,21.55,3.31,35.47,9.9h-1.34" transform="translate(-615.79 -175.22)"/><path class="cls-2" d="M1134.38,188.22c4.68,2.38,12.17,6.52,9.85,7.37a8.69,8.69,0,0,1-2.84,0c-3.16-.29-6.62-.52-10.4-.68a297,297,0,0,0-35.31-18.35q5.31.22,9.66.65c8,1,22,7.38,29,11M1192,224.7l1,.17c-13.05-9.43-13.05-9.43-15.69-11.3q-2.39-1.68-4.79-3.31c-13.28-8.7-19.49-11.5-26.29-13.62l.67-.37c-1-4.16-32.41-18.49-43.62-19.92q-4.77-.48-10.7-.7a300.29,300.29,0,0,1,75.36,46.82l1.48.06A306.29,306.29,0,0,0,1133,196.16q5.73.26,10.53.7c6.66,1,12.86,3.36,28.23,13.4q2.63,1.78,5.22,3.61c5,3.58,9,8.34,15,10.83" transform="translate(-615.79 -175.22)"/><path class="cls-2" d="M1200.62,226.75l-.7-.22a343,343,0,0,0-83.83-47.89l.52.16a344.3,344.3,0,0,1,84,47.95" transform="translate(-615.79 -175.22)"/><path class="cls-2" d="M1206.51,229.42q-8.87-6.84-18.2-13.13l-11.72-7.56a345.14,345.14,0,0,1,29.5,20.42l.42.27" transform="translate(-615.79 -175.22)"/><path class="cls-2" d="M637.16,594.94c1.66,4.1,4.44,11,5,13.68a6,6,0,0,0,.47,1.56c-13.07-32.28-14.43-35.66-21.15-64l-.06-.34c.44.76.57,1,3,10.41a307,307,0,0,0,12.79,38.69m1.51-2.37a310.33,310.33,0,0,1-13.26-40.18c-3.46-13.57-5.49-21.4-7-24.42-.22.47-.21.5-.21.53l3.1,17c9.53,37,9.9,38.44,23.68,69.82L650.3,626a5.84,5.84,0,0,1-.63-2c-1.29-7.58-6.9-21.37-11-31.44" transform="translate(-615.79 -175.22)"/><path class="cls-2" d="M652.49,584.09c2.21,5.62,2.36,9,.48,10.52q-2.1,1.46-3.8,2.85-5.32-11.88-9.69-24.25c1.14-.93,2.41-1.89,3.81-2.86,3.06-1.84,5.76,5,6.64,7.29s1.68,4.31,2.56,6.45m-14.12-41.17c1,4.14,1.9,9.14-.41,11.06-1.38,1-2.64,1.91-3.76,2.83q-3.3-11.23-5.76-22.82c1.13-.92,2.39-1.87,3.77-2.83,1.87-1.07,3.45,1,4.83,6.45q.65,2.67,1.33,5.31m21.48,39.36c-.89-2.16-1.75-4.34-2.6-6.52-5.81-14.64-10.57-16-13.64-15.71,3.17-4.5,3.45-11.82.88-22.36-.46-1.79-.9-3.6-1.32-5.41-3.77-15.43-8.39-21.63-13.73-18.42q-2.31,1.57-4.14,3.08a35.07,35.07,0,0,0-3.64,3.41q1.29,8.31,3.05,16.65a313,313,0,0,0,28.34,79.2c.49-.54,1-1.09,1.62-1.64a51.77,51.77,0,0,1,6.3-4.92c5.07-3.86,4.69-13.07-1.12-27.36" transform="translate(-615.79 -175.22)"/><path class="cls-2" d="M695.51,679.07c-4.28-4.51-17.28-18.24-18.23-14-1.94,8.73,57.75,69.32,67.23,68.24,2-2.8-9-13.4-25.77-29.44q-3-2.83-5.84-5.74a11,11,0,0,0-2.77,4.82l-1.8-1.79a11.75,11.75,0,0,1,3.19-5.29,357.64,357.64,0,0,0,37.18,33l-.33.37c-7.09-5.33-12.93-10.35-17.19-14,10.43,10.31,17.15,17.26,15.48,19.73-9.76,1.46-70.76-60.54-71-72.11,1.94-3.92,15.24,10.31,20.24,15.67l-.43.47" transform="translate(-615.79 -175.22)"/><path class="cls-2" d="M724.63,696.35c-12.69-16.16-16.85-23.49-29.18-45.24l0,0c6,6.61,19.34,20.37,41.55,38.27a111.15,111.15,0,0,0-12.42,7m47.3,18.44,1.23-.55c-25.72-18.07-50-35.13-78.82-65.89l-1.05.59c13.88,24.93,27,48.47,58.06,77.59l.56-.45c-7.94-8.15-18.41-19.14-25.74-27.77A113.57,113.57,0,0,1,739.11,691c9.73,7.27,22.77,16.89,32.82,23.77" transform="translate(-615.79 -175.22)"/><path class="cls-2" d="M796.15,685.11c13.88,18.29-2.09,24.44-11.95,23-10.48-1.49-20-9.86-23.58-13l1.38-.58c28.07,23.5,36.86,6,37,2.79,0-.26-1.61-26.05-38.95-27.51-33.81-1.32-45-31.08-28-39.49,10.25-2.54,19.07-1.19,31.42,13.32l-2,.66c-20.52-22.85-34.84-10.13-35.54-3.1,0,.26.13,25.6,33.23,26.42,15.67.39,26.2,3.29,36.95,17.47" transform="translate(-615.79 -175.22)"/><path class="cls-2" d="M861.2,621.59c6.39,17.15-9.33,21.67-16,23.6q-11.58,3-22.25,6-11.7-18.52-22-38.64,11.52-3.21,24-6.47c23.24-5.28,32.55,5.53,36.27,15.52m2.91-.76c-3.28-9-12.84-23.18-40-17.05q-14.08,3.68-26.92,7.27A472.23,472.23,0,0,0,847,689.1l2.13-.6q-13.07-16.72-24.94-35.3,10.78-3,22.53-6.07c6-1.77,24.38-7.16,17.39-26.3" transform="translate(-615.79 -175.22)"/><path class="cls-2" d="M940.65,603.39c3.1,16.19-14.24,20.24-21.65,22q-12.54,2.71-24.83,5.53Q886,612.57,878.43,593q14.39-3.3,29.11-6.46c25.11-4.64,31.52,8.56,33.11,16.84m20.8,58.54,2.58-.52c-3.37-4.71-4.7-7.39-7.49-15.06q-.87-2.45-1.72-4.92c-5.37-13.07-10.79-16.76-25.2-17.17,27-12.25,12-35.83-3-40-8.07-2.22-16-.76-19.75,0q-16.35,3.51-32.34,7.19a703.67,703.67,0,0,0,37.21,81.23l2.49-.57q-9.9-18.62-19.17-39.1,12.3-2.81,24.85-5.52c18.85-3.14,25.77,0,32.21,14.75q1,2.7,1.92,5.37c2.53,6.78,4.25,10.13,7.36,14.34" transform="translate(-615.79 -175.22)"/><path class="cls-2" d="M1044.83,607.22c2.3,36.4-21.77,41.75-29.68,43.51-41.42,5.15-58.31-49.6-38.54-71.57,15.9-17.67,62-22,67.78,23.4.18,1.4.35,3.26.44,4.66m3-.32c-1.32-24.07-16.25-49.19-54-40.77C945,582.21,967.07,637.93,992,650c17.36,8.41,58.42,3.71,55.84-43.09" transform="translate(-615.79 -175.22)"/><path class="cls-2" d="M1144.71,633.25q-7.53.79-15.28,1.69c-9.79-27.41-10-27.94-23.11-54.28.35,19.88-.11,39.06-1.34,57.28q-7.29.94-14.72,2a836.2,836.2,0,0,0-2.77-89.07q9.63-1.33,19.11-2.56c15.91,30.08,16.53,31.26,27.33,58.35a605,605,0,0,0,2-61.93q8.44-1,16.68-1.83a526.09,526.09,0,0,1-7.9,90.38" transform="translate(-615.79 -175.22)"/><path class="cls-2" d="M1198.28,603c-2.39,9.35-8.19,11.86-12.63,12.32-6.23.29-8.88-3.44-7.64-10.8,2.23-11.86,4-24,5.33-36.41,1.88-14.62,16-15.44,20.08-10.43,2.39,3,1.9,7,1.69,8.79q-2.65,18.65-6.83,36.53m13.71,0c3.33-12.46,6.08-25.25,8.22-38.29,2.64-18.84-6.56-28.55-25.24-26.65-11.59,1.83-25.88,8.62-28.09,30.65q-1.49,19.42-4.4,38c-4,29.59,22.73,27.19,35.06,18.25,4.76-3.44,11.13-10.05,14.45-22" transform="translate(-615.79 -175.22)"/><path class="cls-2" d="M1251.48,601.43c-2.79,7.35-6.68,10.9-12.24,11.17q-3.37,0-6.89.08a373.46,373.46,0,0,0,15.74-60q4-.06,7.75-.08c6.07.26,8.13,4,6.49,11.9a358.58,358.58,0,0,1-10.85,37m10.37,1a350.45,350.45,0,0,0,12.08-38.34c2.91-12.48,2.69-27.47-14.94-28q-4.1,0-8.37.09-6.66.12-13.72.37A386.06,386.06,0,0,1,1215.17,628l6.74-.21c4-.1,7.93-.16,11.68-.17,15.45-.53,23.9-14,28.26-25.25" transform="translate(-615.79 -175.22)"/><path class="cls-2" d="M1309.54,557a110.09,110.09,0,0,0-14.85-2.62q-2.82,11.48-6.44,22.67a117.14,117.14,0,0,1,12.55,2.09q-2.76,7.94-5.91,15.73a109.32,109.32,0,0,0-12.17-2q-4.07,10.73-8.82,21.13a94.84,94.84,0,0,1,13.22,2.33q-3.75,7.6-7.89,15a107.65,107.65,0,0,0-17.18-2.7l-3.2-.26a343.45,343.45,0,0,0,30.3-91.4q4.9.36,9.18.85a112.61,112.61,0,0,1,15.2,2.68q-1.77,8.31-4,16.5" transform="translate(-615.79 -175.22)"/><path class="cls-2" d="M1303.24,616.3c-5.92,11.73-12.94,23.2-14.92,20.2-3.55-5.4,5.47-15.91,9.81-21-1.69,5-1.37,5.55-1,6.15.7-.31,1.75-.77,5.61-8.54a310,310,0,0,0,23.54-66,6,6,0,0,1,1.1,2.47,307.1,307.1,0,0,1-24.14,66.73" transform="translate(-615.79 -175.22)"/><path class="cls-2" d="M1312.76,597.56c2.13-5.26,4.43-11.52,6.84-18.6l.84-2.53c1.35-4.19,2.27-7.13,3.55-11.6l-3.68,12.11-7.84,21.33c.09-.21.2-.5.29-.71" transform="translate(-615.79 -175.22)"/><path class="cls-2" d="M1289.74,643.25c4.81-7.91,8.56-16.32,13.36-24.24l-3.11,6.1-10.28,18.2,0-.06" transform="translate(-615.79 -175.22)"/><path class="cls-2" d="M966.7,759.37c8.72,10,.57,12.4-2.11,13.18l-4.93,1.26-5.8,1.53a274.52,274.52,0,0,1-30.76-22.07q3.74-1,7.62-2,3.42-.88,6.89-1.76a29.93,29.93,0,0,1,29.09,9.87m-24.86-25c7.16,10.17-2,12.8-5.44,13.79q-3.6.9-7.14,1.82l-7.71,2a336.48,336.48,0,0,1-24.81-23c3-.8,6-1.6,9.1-2.41q4.13-1.07,8.33-2.12c15.69-3.33,24.07,4.74,27.67,9.86m26.32,24.54c-6.59-7.65-15.27-11.49-25.81-11.39,11.74-6.85-3.34-22-14.8-24.78-5.57-1.34-8.44-.85-14.71.2q-4.25,1.07-8.4,2.15-5.67,1.47-11.06,2.93c19.37,19.72,39.88,36.17,60.93,48.64q3.35-.9,6.86-1.82l5-1.27c2.88-.86,11.65-3.49,2-14.66" transform="translate(-615.79 -175.22)"/><path class="cls-2" d="M1013.68,736.73c6.51,23.28-4.84,26.28-9.12,27.41-23,3.31-53.67-32.52-41.06-47.93,8-9.77,40.19-15.15,50.18,20.52m1.86-.25c-4.66-17.75-18.62-34.39-43.79-27.86-31.07,11.93-1.84,47.25,19.43,55.21,14.53,5.43,31.69.54,24.36-27.35" transform="translate(-615.79 -175.22)"/><path class="cls-2" d="M1071.89,727c-2.05,11.4-7.52,25.66-21.94,28.8-21.08,2.11-31-36.31-17.87-51.14,10.81-12.21,38-14.33,40.49,10a44.05,44.05,0,0,1-.68,12.37m1.76-.15c3.83-19.71-3.69-37.17-29.13-31.72-34.64,11.34-18.4,55.71-2.78,61.39,12,4.36,27.22-5.54,31.91-29.67" transform="translate(-615.79 -175.22)"/><path class="cls-2" d="M1129.75,686.11q-11,1.17-22.44,2.6c-5,23.64-11.68,44.69-20,62.37l-1.26.16c8-17.65,14.46-38.67,19.22-62.28q-11.4,1.42-23.19,3.1c.06-.62.12-1.24.17-1.86,16.59-2.34,32.73-4.35,48.07-6l-.6,1.9" transform="translate(-615.79 -175.22)"/><path class="cls-2" d="M1139.74,734.11c-12,13.88-28.23,18.72-29.33,11.28-.49-3.31,1.71-8.28,2.89-11l1.45-.15c-5,11.7-2.26,15.63,8,11.7,5.89-2.26,33.93-22.27,15.88-29.76-20.26-8.41-1.65-32.44,17.24-35.49,9.09.09,13.95,2.95,8.08,16.63l-1.57.1c8.61-22.06-14.05-13.13-14.28-13-5.51,2.22-28.49,21.65-7.88,30,6.18,2.52,11.24,6.11-.49,19.67" transform="translate(-615.79 -175.22)"/><path class="cls-2" d="M1212.81,681.29c-4.94-.09-10.23-.07-15.84.05a304.29,304.29,0,0,1-53.48,65.13l-.92,0a303,303,0,0,0,52.92-65.11c-5.61.14-11.53.38-17.72.73l1-1.94c13.09-.73,25-1,35.36-.83l-1.34,1.95" transform="translate(-615.79 -175.22)"/><path class="cls-2" d="M1222.39,701.86c-12.44,12.67-18.12,12.37-20,12.27-2.4-.25-5-.44-7.92-.58a335,335,0,0,0,26.44-32q5.65.27,10.27.77c8.25,1.64-5.89,16.56-8.8,19.53m-52.72,45.91.47.09c9.1-6.89,11.92-9.1,15.19-11.67,1.58-1.24,3.15-2.51,4.7-3.78,11.45-9.67,15-14,14.3-17.09,14.11-4.42,36.81-30.49,30-34.45a5.28,5.28,0,0,0-1.57-.47c-3.44-.37-7.31-.66-11.61-.84a327.7,327.7,0,0,1-63.38,67l.74,0a324.41,324.41,0,0,0,34.35-31.31c2.86.14,5.49.33,7.87.57,3.82,1.06,3.17,4.12-11.46,16.63q-2.54,2.09-5.12,4.12c-4.62,3.64-4.81,3.78-14.46,11.16" transform="translate(-615.79 -175.22)"/><path class="cls-2" d="M1207.52,724.1c21.56-16.76,35.28-30.32,41.55-36.9h0a300.12,300.12,0,0,1-37.7,39.29,9.56,9.56,0,0,0-3.86-2.4M1178,751.77a1.34,1.34,0,0,1,.07.18c24.29-17.32,47.23-33.68,73.13-66.82l-.37-.24c-20.84,20.25-40.52,39.38-78.61,63.45l.41.11c10-6.67,23.19-15.66,32.8-22.75a9.47,9.47,0,0,1,4,2.47c-9.24,7.28-21.69,16.87-31.42,23.6" transform="translate(-615.79 -175.22)"/><path class="cls-2" d="M1223.55,721.69c-4.88,4.27-5.66,4.71-6,4.88l.1-.35a5.77,5.77,0,0,0,1.09-2.28A342.35,342.35,0,0,0,1252.27,692a7,7,0,0,1-1.33,2.78c-.52.65-.71.88-2,2.3l-12.77,13-12.52,11.51-.08.08m-3.34,2.89c4.93-4.2,11.17-10.13,15.94-14.48L1251,694.87h0c1.06-1.16,1.15-1.28,1.62-1.87a6.7,6.7,0,0,0,1.41-3.12,348.84,348.84,0,0,1-75.85,63.1.57.57,0,0,1,0,.18,352.85,352.85,0,0,0,38.7-27.59,5.7,5.7,0,0,1-1.11,2.3l-.16.34c.52-.28,1.11-.61,4.66-3.62" transform="translate(-615.79 -175.22)"/><path class="cls-2" d="M905.34,806.74l.24,0-1.33-.24,1.09.2" transform="translate(-615.79 -175.22)"/><path class="cls-2" d="M827.38,783.74c-3-1.2-6-2.45-9-3.67l.15.07-16.32-7.69c.06,0,6,2,25.18,11.29" transform="translate(-615.79 -175.22)"/><path class="cls-2" d="M870.43,797.49c10.1,2.69,20.61,4.06,30.35,7.9l.21.09.18.08.16.06.14,0,.11,0,.08,0h.06c-1.73-.19-5-.55-14.52-2.76l-7.13-1.71-6.89-1.82c3.53.93,8.12,2.09,10,2.33-.51-.37-2.17-.82-11.22-3.21l-4.37-1.18c-3.3-.92-6.64-1.69-9.95-2.57l-.06,0h-.07c-.45-.11-1-.23-2-.59l-10.88-3.69-5.45-2c1.51.57,1.51.57,27.08,7.79l4.26,1.17" transform="translate(-615.79 -175.22)"/><path class="cls-2" d="M871.12,791.92c19.11,5.73,25.21,7.62,26.49,9.24a1.48,1.48,0,0,1,0,.3.36.36,0,0,1,0,.11s0,.07,0,.1,0,.05,0,.07v.13h0A87.74,87.74,0,0,1,867.28,795c10.74,2.75,11.87,2.34,12.41,2.15-.38-.55-.77-1.11-9.61-3.69l-4.41-1.31c-6.82-2-7.9-2.13-12.45-2.49h-.31c-3.22-.19-8.6-.5-26.67-7.76l-2.61-1.07c-12-5.07-26-12-25.75-14.88.07-.05,12.32-1.18,27.36,11.38-9.69-3.7-10.63-3.73-11.46-3.48.25.61.68,1.62,8.46,5q1.6.69,3.21,1.35c4.79,2,8.47,3.22,12,3.4,7.16.37,10.73,1.22,29.39,7.06l4.25,1.3" transform="translate(-615.79 -175.22)"/><path class="cls-2" d="M883.21,784c15.84,5.86,23.94,9.34,21.4,10.9-3.74,2.3-12,.4-24.66-5.67,6,1.29,6.84.89,7.39.62-.22-.67-.41-1.25-9-4.3a376.67,376.67,0,0,1-65.85-30.67q2.41-1.29,5.23-2.64A370.76,370.76,0,0,0,883.21,784" transform="translate(-615.79 -175.22)"/><path class="cls-2" d="M905.44,775.37c14.34,7,18.45,10.89,13.75,12.94l-.51.2-.43.17-.37.14-.29.12-.23.09-.16.06-.1,0h0c-6.47-.21-12.06-.4-25.86-4.73L888.92,780c17.06,5.6,16.09,1.29,16.07,1.25-.51-1.34-4.06-3-5.58-3.68-1.23-.56-2.47-1.12-3.7-1.7-4.46-2-4.46-2-15.26-2.89h-.16l-.46,0c-7.29,0-15.54,0-32.19-8.68L845.27,763c-8.87-4.93-22.14-13.88-11.3-18.5,8.5-2.89,19.43,1.85,29,6.87l-1,6.12c-18.36-8.34-16.09-1.27-16.05-1.2.66,1.47,3.4,3.1,4.43,3.71s1.88,1.08,2.83,1.61c3.65,2,7.9,3.91,16.17,3.7,11.44-.29,19.07,1.66,32.65,8.35,1.15.57,2.29,1.14,3.44,1.69" transform="translate(-615.79 -175.22)"/><path class="cls-2" d="M1024.53,293.84c2,6.15-3.11,8-6.37,8.52q-8.67,1.26-17.43,2.6-3-9.76-6.11-19,8.48-1.31,16.86-2.52c5.6-.69,9.55,1.39,11.43,6q.81,2.18,1.62,4.39m20.13,56.75q11.55-1.62,22.88-3.1c-9.85-10.34-23.11-24-33.2-34.18,10-4.64,13.12-12.15,9.41-22.33q-.91-2.28-1.84-4.53c-3.92-8.75-13.19-18.61-35.07-15.84q-8.26,1.18-16.61,2.47-9,1.38-18.18,2.85c7.48,24.48,15.06,52.09,22.5,82.22q10.28-1.65,20.46-3.21-4.89-18.58-10-35.83l9.49-1.43c9.13,9.82,21.22,23,30.16,32.91" transform="translate(-615.79 -175.22)"/><path class="cls-2" d="M1109.39,271.76q-17.28,1.61-35.67,3.71,4.52,9.06,8.79,18.67c10.81-1.23,21.38-2.35,31.65-3.34q3.38,6.79,6.6,13.87c-10.48,1-21.27,2.15-32.29,3.41q4,9.74,7.71,20,19.83-2.28,38.51-4,3,7.49,5.86,15.22c-16.19,1.5-33.1,3.32-50.55,5.42l-7.75.94A567.45,567.45,0,0,0,1050,264.84q8.65-1.08,17.12-2c11.9-1.37,23.5-2.58,34.69-3.62q3.87,6.15,7.57,12.58" transform="translate(-615.79 -175.22)"/><path class="cls-2" d="M1196.72,311.91c7.13,15.15,1.48,23.62-16.79,25.17l-1.84.12-1.59.1-1.36.1-1.12.07-.86.06-.63.05-.37,0H1172c-12.87-3.38-20.63-5.43-29.65-17.7l13.09-7.51c12.17,13.91,26.31,9.6,27.09,4.59a8.15,8.15,0,0,0-.9-4.33c-.6-1.23-1.2-2.46-1.81-3.68-2.42-4.51-2.42-4.51-18.52-9.06l-.25-.08-.88-.11c-14-2.64-26.12-4.92-35.08-20.09l-1.18-2.09c-7.13-13.22-2.56-20.6,13.6-22,12.49-.55,22.76,3.84,33.31,14.24l-9,6.14c-14.42-13.36-23.4-6.68-23.65-4a6.5,6.5,0,0,0,1.07,3.53c.51.84,1,1.69,1.52,2.55,1.79,2.82,4.25,6.69,21.17,9.27,20.59,3.15,28,12,32.9,21,.61,1.18,1.21,2.37,1.81,3.56" transform="translate(-615.79 -175.22)"/><path class="cls-2" d="M1215.13,267.51q-3-.15-6.27-.25c-2.35-.08-4.77-.13-7.24-.17a330.65,330.65,0,0,1,39.94,67.16q-6.4-.09-13.3,0a337.57,337.57,0,0,0-38.79-67.15q-7.65.06-15.9.34-4.5-6.33-9.25-12.36c12.54-.42,24-.48,34.32-.15,2.11.06,4.14.15,6.1.24q5.34,6,10.39,12.37" transform="translate(-615.79 -175.22)"/><path class="cls-2" d="M1267.23,309.15c-4.38-8-10.16-18.78-15.08-26.54,6.74,8.34,15.8,19.43,22.08,28.07q-3.15-.84-7-1.53m25.41,30.66a35.56,35.56,0,0,1,5,2c-15.72-26.2-30.57-50.95-64.31-83.14-1.27-.31-2.62-.61-4.07-.89,15.1,20.86,29.37,40.57,40,77.87q5,.48,9.27,1.11l-5-13.47a87,87,0,0,1,10.67,2.33l8.46,14.22" transform="translate(-615.79 -175.22)"/><path class="cls-2" d="M1273.74,297.75q-7.8-10.65-16.46-20.63l0,0c5.06,6.34,12.07,14.61,16.85,21.13a6.77,6.77,0,0,0-.43-.54m9.72,14a7.7,7.7,0,0,1,.68.88c-7.94-11.13-18.86-25.79-27.6-36.4l-11.07-12.08a11.68,11.68,0,0,0-2.17-1.73,317.2,317.2,0,0,1,56.43,80.48,12.68,12.68,0,0,1,2.75,2.28,312.37,312.37,0,0,0-19-33.43" transform="translate(-615.79 -175.22)"/><path class="cls-2" d="M954.61,444c-17.36-32.31-64.54-18.18-74.71,7.77-14.52,37.06,16.77,88.39,64.21,66.06C966.2,507.38,962.32,486,960.86,478q-.89-4-1.75-8.11-19.36,3.54-38.64,7.34l-.57-2.51c14-2.76,28-5.41,42-8,3.51,16.4,7,32.62,10.5,48.56l-3,.54c-1-3.37-1.65-6-5-21.35-6.49,36.82-59.69,40.35-79.42,13-13.84-19.19-25.91-70.43,26.37-83.34,30.38-5.15,40.86,7.53,46.59,19.16l-3.38.62" transform="translate(-615.79 -175.22)"/><path class="cls-2" d="M1050.29,430.26c1.63,18.6-18.76,22.17-27.46,23.69q-14.73,2.34-29.61,4.85-2.6-12.58-5.28-25.29-2-9.4-4-18.6,16.32-2.76,32.49-5.3c27.54-3.53,33,11.42,33.83,20.65m13.32,70.14,3.2-.46c-2.81-5.93-3.72-9.09-5.4-18.77-.32-2-.66-4-1-6-3.6-15.51-9.29-20.41-25.37-21.82,33.29-12.71,16.16-40.21,2.07-45.05-8.34-2.86-16.93-1.75-21.06-1.21q-17.89,2.81-36,5.9,2.23,10.39,4.5,21.08c5.46,25.84,10.69,51.42,15.6,76.36l3.29-.56q-4.66-23.94-9.72-48.55,14.94-2.52,29.76-4.87c22-2.43,29.27,1.75,33.73,19.48.37,2.18.74,4.37,1.1,6.55,1.49,8.51,2.72,12.69,5.28,17.91" transform="translate(-615.79 -175.22)"/><path class="cls-2" d="M1096,454.66c9.75-43.88,10.62-57,10.62-57.15l.15,0c10.36,17.44,21.54,34.47,31.47,52.13-13.72,1.49-27.83,3.18-42.24,5m62.19,34,3.17-.32c-12.35-25.16-26.34-53.68-53.58-93.91l-3.25.39c-5.76,32.86-9.56,54.57-22.38,103l3.29-.46c3-12,7-27.95,9.86-40,15.1-2,29.88-3.73,44.22-5.29,5.74,10.91,13.33,25.49,18.67,36.57" transform="translate(-615.79 -175.22)"/><path class="cls-2" d="M1220.48,413.06c2.49,20.14-13.7,21.72-20.62,22.4q-12,.82-24.69,1.94-2.19-13.93-5.14-27.91-2-9.4-4.27-18.56,12.78-1.11,24.88-1.95c22.12-.74,28.44,12.69,29.84,24.08m2.61-.18c-1.26-10.22-7.19-27.23-32.82-26.4-9,.63-18.38,1.37-28,2.22q2.64,10.35,4.9,21a542,542,0,0,1,10.59,77l2.78-.24c-1-15.4-2.62-31-5-46.58q12.89-1.12,25.09-2c6.23-.65,25.21-2.62,22.44-25.09" transform="translate(-615.79 -175.22)"/><path class="cls-2" d="M1293.78,483.18l-1.67-.11a342.07,342.07,0,0,0-2.85-50.77q-5.67-.36-12.09-.57c-9.46-.3-19.84-.31-31-.06a394.14,394.14,0,0,1,3.9,50.78l-2.26.05a399.68,399.68,0,0,0-8.62-77.14q-2.27-10.68-5-21l2.32-.05q2.79,10.34,5.06,21,2.52,11.91,4.28,23.82c11.18-.25,21.56-.23,31,.07q6.42.19,12.09.57-1.65-11.89-4.17-23.82-2.25-10.68-5.14-21l1.71.12q2.88,10.35,5.15,21a340.46,340.46,0,0,1,7.32,77.13" transform="translate(-615.79 -175.22)"/><path class="cls-2" d="M1333.38,450.08c0,.42,4.21,42.07-3.34,39.37-4.48-3.78-7.34-15.81-11.31-47.68-2.25-18-6-48.15-.62-48s12.68,30.93,15.27,56.29m0,63.93.28-1.79c-.09-6.46-.09-15.08-.74-21.51,6-16.45-4.05-95.52-15.57-99.52-8.1,2.1,3.54,95.46,12.58,100.9a1.88,1.88,0,0,0,2.26-.2c.56,6.62,1.35,15.48,1.19,22.12" transform="translate(-615.79 -175.22)"/><path class="cls-2" d="M764,492.4c-18.85-30.31-47.63-14.9-53.78,5.49-8.91,29.52,14.75,87.83,51.45,70.68,14.15-6.62,15-19.69,15.64-28.34l3-.81c-.79,39.52-38.35,41.54-55.2,24.21-18.68-19.21-34.16-74.89,4.78-89.23,10.84-2.76,26.46-4,37,17.22l-2.85.78" transform="translate(-615.79 -175.22)"/><path class="cls-2" d="M647.17,414.62c2.85-10,6.59-23.44,9.94-33.34-.35,8.75-.87,20.43-.64,29.18q-5,2.12-9.3,4.16m12.37,24.82q5.36-2.19,11.32-4.44c-4.54-25.62-8.82-49.81-2.67-84.2q-2.82,1.23-5.42,2.43c-12.07,28.34-23.47,55.11-29.59,98.61q3.47-2,7.58-4l2.67-16.06q6.38-3.09,14.19-6.34l1.92,14" transform="translate(-615.79 -175.22)"/><path class="cls-2" d="M710.33,396.8c-1.81,30.43-27,38.92-35.48,31.14a12.49,12.49,0,0,1-2.7-3.76l9.37-14c3.81,5.8,11.77,2.76,13.94-5.34a22.65,22.65,0,0,0,.69-4.44,317.18,317.18,0,0,1,10.21-63.83q6.21-2.05,12.94-4.16a328,328,0,0,0-9,64.43" transform="translate(-615.79 -175.22)"/><path class="cls-2" d="M740.75,382.11c3-9.76,7-22.78,10.42-32.45,2.13,8.28,4.94,19.34,7.47,27.53q-9.23,2.47-17.89,4.92m28.06,22.77,4.45-1.16q7.54-2,15.25-3.89c-11.59-25.26-22.54-49.12-28.37-79.31q-5.31,1.44-10.42,2.87c-11.67,26.57-23.75,54-33.49,96.32q7.93-2.43,16.46-4.9l3.6-15.85q13-3.7,27.29-7.5l5.23,13.42" transform="translate(-615.79 -175.22)"/><path class="cls-2" d="M843.85,386.81c-6-7.69-14-17.95-19.8-25.75-4.11,10-9.6,23.33-13.5,33.4Q800,397,789.63,399.55c14.31-31.64,14.59-32.24,24.57-51.86-15.13-21.25-16.37-23-23.46-35.11q9.19-2.29,18.6-4.52c4,6.59,9.34,15.41,13.58,21.88,0,0,9.49-19.74,13.69-28.15q9.67-2.15,19.5-4.23c-13.89,25.92-15.68,29.25-23.77,45.43,18.92,22.77,18.92,22.77,33.47,39.07q-11.05,2.34-22,4.75" transform="translate(-615.79 -175.22)"/></svg>